<?xml version="1.0" encoding="UTF-8"?>
<svg version="1.1" xmlns="http://www.w3.org/2000/svg" width="32" height="32">
<path d="M0 0 C10.56 0 21.12 0 32 0 C32 10.56 32 21.12 32 32 C21.44 32 10.88 32 0 32 C0 21.44 0 10.88 0 0 Z " fill="#061B95" transform="translate(0,0)"/>
<path d="M0 0 C6.93 0 13.86 0 21 0 C20.34 1.32 19.68 2.64 19 4 C19 4.66 19 5.32 19 6 C20.65 6 22.3 6 24 6 C24 7.98 24 9.96 24 12 C23.01 11.67 22.02 11.34 21 11 C20.67 12.32 20.34 13.64 20 15 C17 15 14 15 11 15 C10.01 15.495 10.01 15.495 9 16 C8.21625 16.144375 7.4325 16.28875 6.625 16.4375 C3.67138438 16.95607613 3.67138438 16.95607613 0 19 C0 12.73 0 6.46 0 0 Z " fill="#027FCB" transform="translate(0,0)"/>
<path d="M0 0 C3.96 0 7.92 0 12 0 C11.01 0.495 11.01 0.495 10 1 C10 1.66 10 2.32 10 3 C10.99 2.67 11.98 2.34 13 2 C13.33 1.34 13.66 0.68 14 0 C14.66 0 15.32 0 16 0 C16.33 2.31 16.66 4.62 17 7 C10.73 7 4.46 7 -2 7 C-2 5.35 -2 3.7 -2 2 C-1.34 2 -0.68 2 0 2 C0 1.34 0 0.68 0 0 Z " fill="#4E64BB" transform="translate(8,19)"/>
<path d="M0 0 C2.97 0 5.94 0 9 0 C7.515 1.485 7.515 1.485 6 3 C7.32 3.33 8.64 3.66 10 4 C10.33 3.01 10.66 2.02 11 1 C13.0625 0.3125 13.0625 0.3125 15 0 C15 1.98 15 3.96 15 6 C14.01 5.67 13.02 5.34 12 5 C11.67 6.32 11.34 7.64 11 9 C8 9 5 9 2 9 C1.01 9.495 1.01 9.495 0 10 C-0.66 9.67 -1.32 9.34 -2 9 C-1.34 6.03 -0.68 3.06 0 0 Z " fill="#7693CF" transform="translate(9,6)"/>
<path d="M0 0 C0.33 0 0.66 0 1 0 C1 2.97 1 5.94 1 9 C-0.65 9.66 -2.3 10.32 -4 11 C-4 11.66 -4 12.32 -4 13 C-6.97 13 -9.94 13 -13 13 C-13.33 13.66 -13.66 14.32 -14 15 C-14 14.34 -14 13.68 -14 13 C-14.66 13 -15.32 13 -16 13 C-16.33 13.66 -16.66 14.32 -17 15 C-16.625 12.5625 -16.625 12.5625 -16 10 C-15.34 9.67 -14.68 9.34 -14 9 C-14.66 8.34 -15.32 7.68 -16 7 C-15.30132812 7.08378906 -14.60265625 7.16757813 -13.8828125 7.25390625 C-12.97273437 7.35574219 -12.06265625 7.45757813 -11.125 7.5625 C-10.22007813 7.66691406 -9.31515625 7.77132813 -8.3828125 7.87890625 C-5.98346943 8.19674852 -5.98346943 8.19674852 -4 7 C-3.67 6.01 -3.34 5.02 -3 4 C-2.34 4.33 -1.68 4.66 -1 5 C-0.67 3.35 -0.34 1.7 0 0 Z " fill="#385EB8" transform="translate(24,6)"/>
<path d="M0 0 C3.96 0 7.92 0 12 0 C11.01 0.495 11.01 0.495 10 1 C10 1.66 10 2.32 10 3 C10.99 2.67 11.98 2.34 13 2 C13.33 1.34 13.66 0.68 14 0 C14.66 0 15.32 0 16 0 C16.33 1.32 16.66 2.64 17 4 C11.06 4 5.12 4 -1 4 C-0.67 2.68 -0.34 1.36 0 0 Z " fill="#C0CAE8" transform="translate(8,19)"/>
<path d="M0 0 C2.97 0 5.94 0 9 0 C8.01 0.66 7.02 1.32 6 2 C6 2.99 6 3.98 6 5 C5.34 5 4.68 5 4 5 C4 5.66 4 6.32 4 7 C3.01 7.33 2.02 7.66 1 8 C1.33 8.66 1.66 9.32 2 10 C0.68 9.67 -0.64 9.34 -2 9 C-1.34 6.03 -0.68 3.06 0 0 Z " fill="#568ECE" transform="translate(9,6)"/>
<path d="M0 0 C2.64 0 5.28 0 8 0 C6.65203595 4.41151871 4.77276583 6.38808519 1 9 C0.67 9 0.34 9 0 9 C0 6.03 0 3.06 0 0 Z " fill="#029BD9" transform="translate(0,0)"/>
<path d="M0 0 C1.32 0.33 2.64 0.66 4 1 C3.01 2.485 3.01 2.485 2 4 C2 4.66 2 5.32 2 6 C2.99 6.33 3.98 6.66 5 7 C3.8125 8.5 3.8125 8.5 2 10 C-0.6875 10.1875 -0.6875 10.1875 -3 10 C-2.835 9.401875 -2.67 8.80375 -2.5 8.1875 C-1.8885876 5.88655664 -1.8885876 5.88655664 -2 3 C-1.34 2.01 -0.68 1.02 0 0 Z " fill="#044DB0" transform="translate(17,0)"/>
<path d="M0 0 C-0.625 2.8125 -0.625 2.8125 -2 6 C-5.125 7.875 -5.125 7.875 -8 9 C-7.70100785 5.41209425 -7.23013399 4.21833224 -4.5625 1.6875 C-2 0 -2 0 0 0 Z " fill="#0562BE" transform="translate(8,10)"/>
<path d="M0 0 C2.625 -0.1875 2.625 -0.1875 5 0 C4.34 1.98 3.68 3.96 3 6 C1.35 6 -0.3 6 -2 6 C-2 3 -2 3 0 0 Z " fill="#0365BD" transform="translate(12,0)"/>
<path d="M0 0 C0.33 0 0.66 0 1 0 C1 2.97 1 5.94 1 9 C-0.98 9.99 -0.98 9.99 -3 11 C-3.93423645 7.98968256 -4.04449911 7.13349732 -3 4 C-2.34 4.33 -1.68 4.66 -1 5 C-0.67 3.35 -0.34 1.7 0 0 Z " fill="#2D45A9" transform="translate(24,6)"/>
<path d="M0 0 C0 1.98 0 3.96 0 6 C-0.99 5.67 -1.98 5.34 -3 5 C-3.66 5.66 -4.32 6.32 -5 7 C-5 6.34 -5 5.68 -5 5 C-6.32 5 -7.64 5 -9 5 C-9 4.34 -9 3.68 -9 3 C-7.68 3.33 -6.36 3.66 -5 4 C-4.67 3.01 -4.34 2.02 -4 1 C-2 0 -2 0 0 0 Z " fill="#708ACA" transform="translate(24,6)"/>
<path d="M0 0 C2.97 0 5.94 0 9 0 C9 0.99 9 1.98 9 3 C6.03 3 3.06 3 0 3 C0 2.01 0 1.02 0 0 Z " fill="#5355B0" transform="translate(16,23)"/>
<path d="M0 0 C1.81325551 0.11351517 3.62563357 0.24112961 5.4375 0.375 C6.95150391 0.47941406 6.95150391 0.47941406 8.49609375 0.5859375 C9.73552734 0.79089844 9.73552734 0.79089844 11 1 C11.33 1.66 11.66 2.32 12 3 C9.03 3 6.06 3 3 3 C2.67 3.66 2.34 4.32 2 5 C2 4.34 2 3.68 2 3 C1.34 3 0.68 3 0 3 C-0.33 3.66 -0.66 4.32 -1 5 C-0.67 3.35 -0.34 1.7 0 0 Z " fill="#1443AD" transform="translate(8,16)"/>
<path d="M0 0 C1.98 0 3.96 0 6 0 C5.01 0.495 5.01 0.495 4 1 C4 1.66 4 2.32 4 3 C4.99 2.67 5.98 2.34 7 2 C7.33 1.34 7.66 0.68 8 0 C8.66 0 9.32 0 10 0 C10.33 1.32 10.66 2.64 11 4 C8.03 4 5.06 4 2 4 C2 3.01 2 2.02 2 1 C1.34 0.67 0.68 0.34 0 0 Z " fill="#B5BADF" transform="translate(14,19)"/>
<path d="M0 0 C0.66 0 1.32 0 2 0 C0.64978174 4.41889613 -1.26115668 6.34345343 -5 9 C-5.33 8.01 -5.66 7.02 -6 6 C-4 4 -2 2 0 0 Z " fill="#028CD2" transform="translate(6,0)"/>
<path d="M0 0 C0.66 0.99 1.32 1.98 2 3 C-0.64 4.65 -3.28 6.3 -6 8 C-4.85240511 3.40962044 -3.70960782 2.66330818 0 0 Z " fill="#0372C6" transform="translate(6,7)"/>
<path d="M0 0 C2 2 2 2 2 5 C-0.33333333 5 -2.66666667 5 -5 5 C-3.35 3.35 -1.7 1.7 0 0 Z M-7 6 C-6.01 6.495 -6.01 6.495 -5 7 C-5.99 7.495 -5.99 7.495 -7 8 C-7 7.34 -7 6.68 -7 6 Z " fill="#1183CD" transform="translate(7,4)"/>
<path d="M0 0 C-1.1875 1.5 -1.1875 1.5 -3 3 C-5.6875 3.1875 -5.6875 3.1875 -8 3 C-7.67 2.01 -7.34 1.02 -7 0 C-3.86650268 -1.04449911 -3.01031744 -0.93423645 0 0 Z " fill="#2C60B8" transform="translate(22,7)"/>
</svg>
