<?xml version="1.0" encoding="UTF-8"?>
<svg id="Capa_1" xmlns="http://www.w3.org/2000/svg" version="1.1" viewBox="0 0 255.29 65.55">
  <!-- Generator: Adobe Illustrator 29.2.1, SVG Export Plug-In . SVG Version: 2.1.0 Build 116)  -->
  <defs>
    <style>
      .st0 {
        fill: #fff;
      }
    </style>
  </defs>
  <path class="st0" d="M159.6,41.02h10.99l-7.6-13.09c.1-.05.2-.1.3-.15,1.84-1,3.28-2.39,4.31-4.17,1.04-1.77,1.55-3.81,1.55-6.11,0-2.14-.52-4.03-1.55-5.67-1.04-1.64-2.47-2.94-4.31-3.89-1.84-.95-3.93-1.43-6.26-1.43h-15.92v31.52l-12.47-31.52h-7.89l-13.76,34.51h9.52l2.11-5.72h11.85l2.11,5.72h17.7v-11.73h2.71l6.61,11.73ZM121.17,28.4l1.26-3.4c.33-.92.63-1.76.91-2.51.28-.76.53-1.48.76-2.17.16-.49.32-1,.47-1.52.15.51.3,1.02.46,1.52.23.72.48,1.46.74,2.22.26.76.56,1.58.89,2.47l1.26,3.4h-6.75ZM150.28,14.35h5.03c.95,0,1.75.16,2.39.47.64.31,1.13.76,1.45,1.33.33.58.49,1.26.49,2.05s-.16,1.54-.47,2.14c-.31.61-.76,1.08-1.33,1.43-.58.35-1.29.52-2.14.52h-5.42v-7.94Z"/>
  <path class="st0" d="M181.93,6.51h-9.76v34.51h9.76V6.51Z"/>
  <path class="st0" d="M216,36.73l-4.63-7.35c-.59.59-1.27,1.13-2.02,1.63-.76.49-1.59.89-2.49,1.18-.9.3-1.87.44-2.88.44-1.45,0-2.75-.21-3.92-.64-1.17-.43-2.17-1.03-3.01-1.8-.84-.77-1.48-1.71-1.92-2.81-.44-1.1-.67-2.34-.67-3.72s.22-2.73.67-3.85c.44-1.12,1.06-2.07,1.85-2.86s1.72-1.39,2.79-1.8c1.07-.41,2.21-.62,3.43-.62,1.05,0,2.01.14,2.88.42.87.28,1.65.67,2.34,1.16.69.49,1.31,1.05,1.87,1.68l5.87-6.8c-1.08-1.18-2.32-2.17-3.7-2.96-1.38-.79-2.85-1.39-4.41-1.8-1.56-.41-3.16-.62-4.81-.62-2.73,0-5.24.44-7.54,1.33-2.3.89-4.29,2.14-5.97,3.75-1.68,1.61-2.98,3.51-3.92,5.69-.94,2.19-1.4,4.58-1.4,7.17s.45,5.04,1.36,7.22c.9,2.19,2.19,4.08,3.85,5.67,1.66,1.59,3.62,2.83,5.89,3.72,2.27.89,4.75,1.33,7.44,1.33,1.71,0,3.41-.21,5.1-.62,1.69-.41,3.24-.98,4.63-1.7,1.4-.72,2.51-1.54,3.33-2.47Z"/>
  <path class="st0" d="M249.92,41.02l-13.66-34.51h-7.89l-13.76,34.51h9.52l2.11-5.72h11.85l2.11,5.72h9.71ZM228.79,28.4l1.26-3.4c.33-.92.63-1.76.91-2.51.28-.76.53-1.48.76-2.17.16-.49.32-1,.47-1.52.15.51.3,1.02.46,1.52.23.72.48,1.46.74,2.22.26.76.56,1.58.89,2.47l1.26,3.4h-6.75Z"/>
  <path class="st0" d="M113.72,54.36l-3.99-6.5h-2.24v12.77h2.35v-4.8c0-1.18-.03-2.2-.08-3.05-.02-.32-.05-.63-.08-.94l3.37,5.33h1.2l3.47-5.36c-.04.36-.07.71-.09,1.07-.05.88-.08,1.86-.08,2.95v4.8h2.35v-12.77h-2.13l-4.05,6.5Z"/>
  <path class="st0" d="M131.14,55.56c0,.57-.13,1.08-.39,1.52-.26.44-.62.8-1.07,1.07-.45.27-.95.4-1.51.4-.51,0-.98-.13-1.42-.4s-.79-.62-1.05-1.07c-.26-.44-.39-.95-.39-1.52v-7.71h-2.39v7.88c0,.96.23,1.82.68,2.58.46.76,1.08,1.36,1.87,1.79.79.43,1.69.65,2.7.65s1.93-.22,2.72-.65c.79-.43,1.41-1.03,1.87-1.79.46-.76.68-1.62.68-2.58v-7.88h-2.3v7.71Z"/>
  <path class="st0" d="M145.22,51.7c0,.52,0,1.02.02,1.49.01.47.03.91.05,1.34.02.43.04.83.07,1.22.03.39.06.76.1,1.12.01.1.02.21.03.31l-6.91-9.31h-2.13v12.77h2.35v-4.94c0-.17,0-.35,0-.54,0-.19-.02-.4-.04-.63-.02-.23-.04-.52-.06-.87-.02-.35-.06-.76-.1-1.24-.02-.26-.05-.56-.08-.89l6.89,9.1h2.17v-12.77h-2.35v3.83Z"/>
  <path class="st0" d="M151.95,47.87h-1.19v12.77h2.37v-12.77h-1.19Z"/>
  <path class="st0" d="M159.03,51.18c.36-.38.78-.67,1.28-.88.49-.21,1.02-.31,1.58-.31.38,0,.74.06,1.1.17.36.12.71.29,1.04.51.33.23.66.5.98.83l1.51-1.66c-.33-.43-.74-.8-1.22-1.12-.49-.32-1.02-.57-1.6-.76-.58-.18-1.19-.27-1.81-.27-.91,0-1.76.16-2.54.49s-1.46.79-2.04,1.39c-.58.6-1.04,1.29-1.37,2.08-.33.79-.49,1.65-.49,2.57s.16,1.85.47,2.65c.31.81.74,1.51,1.3,2.1.56.59,1.22,1.04,1.99,1.36.77.32,1.61.47,2.53.47.6,0,1.19-.08,1.8-.23.6-.15,1.15-.36,1.63-.63.49-.27.88-.57,1.17-.89l-1.17-1.88c-.27.27-.56.5-.88.7-.32.2-.67.36-1.05.47s-.77.16-1.17.16c-.62,0-1.19-.1-1.7-.3-.52-.2-.96-.49-1.33-.87-.37-.38-.66-.83-.86-1.35-.2-.52-.3-1.11-.3-1.75s.1-1.21.31-1.72c.21-.52.49-.96.85-1.34Z"/>
  <path class="st0" d="M169.75,47.87h-1.19v12.77h2.37v-12.77h-1.19Z"/>
  <path class="st0" d="M182.82,49.84c-.35-.61-.82-1.09-1.41-1.44-.59-.35-1.25-.53-1.98-.53h-5.31v12.77h2.37v-4.67h2.94c.73,0,1.39-.18,1.98-.55.59-.36,1.06-.85,1.41-1.47.35-.61.53-1.3.53-2.07s-.18-1.43-.53-2.04ZM180.7,52.84c-.15.28-.35.5-.6.67-.25.17-.53.26-.83.26h-2.77v-3.72h2.77c.3,0,.58.08.83.25.25.16.45.38.6.66.15.27.23.59.23.94s-.08.67-.23.95Z"/>
  <path class="st0" d="M187.96,47.87l-4.98,12.77h2.37l1.11-2.92h5.11l1.1,2.92h2.46l-4.94-12.77h-2.22ZM187.25,55.65l.84-2.22c.08-.24.18-.52.28-.82.1-.3.21-.62.32-.95s.21-.64.31-.95c0-.03.02-.05.02-.08.1.32.2.66.32,1.02.12.37.23.71.34,1.03.1.32.19.55.25.69l.86,2.28h-3.55Z"/>
  <polygon class="st0" points="199.23 47.87 196.86 47.87 196.86 60.63 205.12 60.63 205.12 58.44 199.23 58.44 199.23 47.87"/>
  <path class="st0" d="M208.79,47.87h-1.19v12.77h2.37v-12.77h-1.19Z"/>
  <path class="st0" d="M222.73,49.63c-.54-.57-1.19-1.01-1.93-1.31-.75-.3-1.58-.46-2.51-.46h-5.12v12.77h5.12c.92,0,1.76-.15,2.52-.46.75-.3,1.4-.74,1.93-1.3.53-.57.95-1.24,1.23-2.02.29-.78.43-1.65.43-2.6s-.14-1.81-.43-2.59c-.29-.78-.7-1.45-1.24-2.02ZM221.74,55.99c-.17.52-.42.96-.75,1.32-.33.36-.73.64-1.19.84-.47.19-1,.29-1.6.29h-2.66v-8.39h2.66c.6,0,1.12.1,1.59.29.46.19.86.47,1.19.84.33.36.59.81.76,1.32.17.52.26,1.1.26,1.74s-.09,1.23-.26,1.74Z"/>
  <path class="st0" d="M229.89,47.87l-4.98,12.77h2.37l1.11-2.92h5.11l1.1,2.92h2.46l-4.94-12.77h-2.22ZM229.17,55.65l.84-2.22c.08-.24.18-.52.28-.82.1-.3.21-.62.32-.95s.21-.64.31-.95c0-.03.02-.05.02-.08.1.32.2.66.32,1.02.12.37.23.71.34,1.03.1.32.19.55.25.69l.86,2.28h-3.55Z"/>
  <path class="st0" d="M248.35,49.63c-.54-.57-1.19-1.01-1.93-1.31-.75-.3-1.58-.46-2.51-.46h-5.12v12.77h5.12c.92,0,1.76-.15,2.52-.46.75-.3,1.4-.74,1.93-1.3.53-.57.95-1.24,1.23-2.02.29-.78.43-1.65.43-2.6s-.14-1.81-.43-2.59c-.29-.78-.7-1.45-1.24-2.02ZM247.36,55.99c-.17.52-.42.96-.75,1.32-.33.36-.73.64-1.19.84-.47.19-1,.29-1.6.29h-2.66v-8.39h2.66c.6,0,1.12.1,1.59.29.46.19.86.47,1.19.84.33.36.59.81.76,1.32.17.52.26,1.1.26,1.74s-.09,1.23-.26,1.74Z"/>
  <path class="st0" d="M16.69,7.7s.07.06.11.06c.02,0,.03,0,.05,0,.85-.31,1.89-.55,3.4-.78.06-.01.11-.06.11-.12.02-.35.04-.69.06-1.03.02-.31.04-.62.06-.94,0-.04,0-.07-.04-.1-.03-.03-.06-.04-.1-.04h-.51c-.07,0-.13.05-.13.12-.03.28-.06.56-.1.83-.13.01-.28.03-.44.06-.01-.06-.02-.13-.04-.19-.04-.2-.07-.42-.1-.61,0-.07-.07-.12-.13-.12-.13,0-.24.02-.36.05-.04.01-.09.02-.15.03-.07.01-.12.08-.11.15.03.24.07.53.1.86-.06.02-.12.03-.18.05-.08.02-.15.04-.23.06-.1-.22-.23-.54-.3-.78-.02-.06-.07-.1-.13-.1-.11,0-.22.04-.33.08-.04.02-.08.03-.11.04-.06.02-.1.08-.09.14.03.23.07.41.12.61.02.08.04.16.06.26-.07.02-.14.05-.21.07-.07.03-.13.05-.2.07-.06-.12-.13-.26-.2-.39-.07-.12-.13-.24-.18-.34-.02-.05-.07-.08-.12-.08-.14,0-.29.07-.39.12h-.03c-.06.04-.09.11-.07.17.15.53.44,1.12.88,1.81Z"/>
  <path class="st0" d="M79.02,6.85c0,.06.05.11.11.12,1.5.23,2.55.47,3.4.78.02,0,.03,0,.05,0,.04,0,.09-.02.11-.06.44-.69.73-1.28.88-1.81.02-.06-.01-.13-.07-.16h-.03c-.1-.06-.25-.13-.38-.13-.05,0-.1.03-.12.08-.05.1-.11.22-.18.34-.07.13-.14.27-.2.39-.06-.02-.13-.04-.2-.07-.07-.02-.14-.05-.21-.07.02-.09.04-.18.06-.26.05-.2.09-.38.12-.61,0-.06-.03-.13-.1-.14-.03,0-.07-.02-.11-.04-.1-.04-.22-.08-.32-.08-.06,0-.11.04-.13.1-.06.24-.2.56-.3.78-.07-.02-.15-.04-.23-.06-.06-.02-.12-.03-.18-.05.04-.33.07-.62.11-.86,0-.07-.04-.13-.11-.15-.05,0-.1-.02-.14-.03-.12-.03-.22-.05-.36-.05-.07,0-.12.05-.13.12-.03.2-.06.41-.1.61-.01.07-.03.13-.03.19-.16-.03-.31-.04-.44-.06-.03-.27-.07-.55-.1-.83,0-.07-.06-.12-.13-.12h-.51s-.07.02-.1.04c-.03.03-.04.06-.03.1.02.32.04.63.06.94.02.34.04.68.06,1.03Z"/>
  <path class="st0" d="M92.7,32.91l-2.32.03c-2.03.03-4.06.2-6.05.5.37-.55,2.27-2.7,2.5-2.86.03,0,.05-.03.06-.05.03-.04.03-.08.02-.12-.04-.12-.06-.27-.09-.41-.02-.09-.03-.17-.05-.25.01,0,.02,0,.03,0,.07,0,.15.02.22.03.05.01.11,0,.14-.05.03-.04.03-.11,0-.15-.36-.56-.33-.76-.3-.81.04-.07.16-.08.25-.08.08,0,.19.01.3.03.05,0,.09,0,.12-.04.03-.04.05-.08.03-.13-.16-.58-.12-1.03-.06-1.61.03-.33.07-.7.07-1.15,0-.04-.02-.08-.05-.11-.03-.03-.08-.04-.12-.02-.4.12-.74.18-1.04.18-.99,0-1.21-.75-1.48-1.7-.2-.68-.42-1.43-.96-2.04,1.33.19,2.49-.21,3.28-1.13.79-.91,1.13-2.25.92-3.67,0,0,0-.02,0-.02-.12-.37-.54-1-1.08-1.8-1.05-1.56-2.49-3.7-1.99-4.65.18-.33.59-.5,1.25-.51.22.34.26.69.29,1.05.04.39.07.8.34,1.21.02.03.06.06.1.06.04,0,.08-.01.11-.04.17-.17.13-.41.09-.65-.05-.33-.07-.56.19-.71.06.13.22.26.58.26.34,0,.77-.1,1.11-.18.21-.05.4-.09.48-.09.07,0,.12-.05.13-.11.04-.29,0-.51-.13-.66-.13-.16-.34-.23-.64-.23-.24,0-.5.05-.71.09h-.03s-.03-.05-.03-.07c0-.17.29-.44.54-.68.27-.24.52-.47.59-.71.01-.04,0-.09-.02-.12-.03-.04-.06-.06-.11-.06-.97,0-1.2-.07-1.82-.28-.26-.08-.57-.18-1.02-.31-.02,0-.04,0-.06,0-1.26.26-2.02.74-2.34,1.48-.6,1.4.67,3.41,1.68,5.02.41.65.8,1.27,1.01,1.75.47,1.1.39,2.25-.21,3.17-.5.75-1.29,1.22-2.08,1.22-.95,0-1.76-.64-2.29-1.8-.43-.93-.91-1.84-1.46-2.71.13-.15.37-.5.9-1.29.28-.41.95-1.4,1.02-1.56.52-1.27.99-4.17.07-5.43-.02-.03-.04-.04-.07-.05-1.2-.34-2.8-.73-4.47-.73-.36,0-.71.02-1.05.05-.06,0-.11.06-.12.12-.09.71-.02,1.14.21,1.4.24.27.64.31,1.03.31.15,0,.31,0,.48-.01.16,0,.33-.01.5-.02.03.22.03.4.02.55-.35-.11-.74-.16-1.22-.16-.33,0-.67.03-1,.05-.33.02-.67.04-.99.04-.13,0-.26,0-.37-.01-.03,0-.05.01-.06.04-.01.02,0,.05,0,.07.29.41.59.54,1.05.73,0,0,.01,0,.02,0h0s.01,0,.02,0h0c.87-.32,1.65-.51,2.54-.63-.11.48-.49.58-.89.68-.44.11-.99.25-.85,1.05,0,.05.04.09.09.11.06.02.13.03.21.03.19,0,.39-.06.59-.12.18-.05.34-.1.48-.1.09,0,.26,0,.31.38-.57.31-1.07.34-1.53.34h-.31c-.7,0-1.34.08-2.02.99-.28-.4-.66-.82-1.06-1.26-.6-.66-1.23-1.35-1.52-2-.3-.68-.14-.84.08-1.07.19-.19.42-.43.38-.96,0-.04-.03-.09-.07-.11-.39-.21-.41-.21-1.01-.21-.07,0-.12.05-.13.12-.04.32,0,.49.03.6.03.11.04.13-.35.44-.48-.22-.53-.47-.58-.73-.09-.43-.23-.75-1.23-.86-.04,0-.08.01-.11.04-.03.03-.04.07-.04.11.07.57.27.95.46,1.33.14.28.28.55.37.89-.18-.03-.35-.04-.5-.04-.87,0-1.07.48-1.08.89,0,0,0,.02,0,.03,0,.07.06.13.14.13h0s.03,0,.04,0c.09-.03.19-.05.29-.05.64,0,1.46.57,1.95,1.35.39.6.49,1.21.28,1.68-.02.02-.03.05-.03.08,0,.07.06.13.13.13h0s.03,0,.04,0c.22-.08.39-.11.51-.11.26,0,.29.14.32.77,0,.08,0,.16.01.25,0,.06.04.1.09.12.05.02.11,0,.15-.04.2-.24.22-.27.47-.27.27.31.3.72.09,1.24-.48,1.17-2.08,2.45-2.94,2.61.04-.33-.01-.57-.14-.73-.2-.24-.56-.28-1.08-.12-.05.02-.08.05-.09.1,0,.05,0,.1.04.13.26.25.21.37.14.53-.11.28-.15.54.46.89-.03.09-.04.19-.04.27-.09.08-.23.11-.37.15-.38.1-.85.22-.77,1.22,0,.05.04.1.09.12.03,0,.07,0,.09,0,.15-.05,1.56-.47,2.02-.59.06.52.41.71.71.71s.59-.18.72-.45c.07-.16.14-.47-.14-.86.21-.12,1.09-.22,1.64-.22.03,0,.05,0,.06,0,.05.01.1,0,.13-.04.03-.04.03-.09.02-.14-.2-.49.22-.75.95-1.13.16-.08.32-.16.47-.25,1.1,1.34,2.15,1.92,3.36,2.59.64.36,1.31.72,2.07,1.25,1.45,1,1.27,2.82,1.08,4.59-.08.83-.16,1.61-.08,2.32,0,.05.04.1.1.12.05.01.11,0,.14-.05.4-.56.81-.86,1.2-.86.47,0,.77.41.91.65.33.56.47,1.46.11,2.08-.25.43-.69.63-1.3.6-.24-.36-.61-.6-.92-.6-.22,0-.6.11-.74.84,0,.02,0,.03,0,.05,0,.07.06.14.14.14h0s0,0,.02,0c.32-.04.53,0,.6.12.06.09.1.34-.22.96-.02.02-.03.05-.03.08,0,.08.06.14.13.13.02,0,.04,0,.06,0,1.06-.45,1.76-.22,2.14.71,0,0,0,0,0,.02-6.22,1-12.17,3.34-17.4,6.87V6.52h-34.09v34.71c-7.23-5.26-15.97-8.18-24.97-8.29l-2.32-.03,4.18,5.63-4.2,5.31,2.32.04c4.48.07,8.8,1.04,12.86,2.88l-1.52,1.65.86.78c8.01,7.28,18.38,11.29,29.21,11.29s21.21-4.01,29.21-11.29l.86-.78-1.52-1.65c4.06-1.84,8.38-2.81,12.86-2.88l2.33-.04-4.2-5.31,4.17-5.63ZM76.59,10.23s-.02,0-.02-.01c.03-.02.08-.03.14-.04-.03.02-.07.03-.12.05ZM79.28,7.98c-.16,0-.33-.1-.39-.37.12.01.25.02.38.03.1,0,.2.01.3.02.03.02.05.03.08.04-.07.18-.23.28-.38.28ZM33.8,7.73h31.65v33.46c-.98.71-1.93,1.46-2.85,2.25l-1.77,1.52,1.55,1.69c-4.18,1.89-8.8,2.89-13.39,2.89s-9.21-1-13.39-2.89l1.55-1.69-1.76-1.52c-.52-.45-1.05-.88-1.59-1.3V7.73ZM70.33,42.35c-1.98,1.68-4.14,3.1-6.42,4.26l-1.32-1.43,7.74-2.82ZM35.4,45.18l-1.32,1.43c-2.29-1.15-4.44-2.58-6.42-4.26l7.75,2.82ZM7.61,42.74l3.17-4.01c.08-.1.08-.23,0-.33l-3.2-4.31c9.97.13,19.51,3.74,27.04,10.24l-8.14-2.97s0,0-.01,0c-.02,0-.04,0-.05-.01,0,0-.02,0-.02,0h-.02s-.04,0-.05,0t0,0s-.04.01-.06.03c0,0-.01,0-.02,0-.02.01-.04.03-.05.04l-4.23,4.59-.13.14c-4.4-2.16-9.24-3.33-14.23-3.42ZM48.99,59.35c-10.55,0-20.64-3.9-28.43-10.99l1.41-1.53.19-.21.05-.05.14-.16.04-.04,4.03-4.38c2.22,2.01,4.67,3.69,7.28,5.03.08.04.16.09.25.13.08.04.17.08.25.12,4.56,2.24,9.6,3.42,14.79,3.42s10.23-1.19,14.79-3.42c.08-.04.17-.08.25-.12.08-.04.17-.08.25-.13,2.62-1.34,5.07-3.02,7.28-5.03l4.03,4.38.04.04.14.16.05.05.19.21,1.41,1.53c-7.8,7.09-17.88,10.99-28.44,10.99ZM90.38,42.74c-4.99.08-9.84,1.26-14.23,3.42l-.13-.14-4.23-4.59s-.04-.03-.06-.04c0,0,0,0-.01,0-.02-.01-.04-.02-.06-.03,0,0,0,0,0,0-.01,0-.03,0-.05,0h-.01s-.02,0-.02,0c-.02,0-.03,0-.05,0,0,0-.01,0-.02,0l-8.14,2.97c7.54-6.49,17.07-10.11,27.04-10.24l-3.19,4.31c-.07.1-.07.23,0,.33l3.17,4.01Z"/>
  <path class="st0" d="M41.44,43.6h4.14c2.09,0,3.8,1.7,3.8,3.79,0,.3.24.54.54.54s.54-.24.54-.54c0-2.09,1.7-3.79,3.8-3.79h4.38c2.24,0,4.05-1.82,4.05-4.06V11.72c0-.3-.24-.54-.54-.54h-24.23c-.3,0-.54.24-.54.54v27.82c0,2.24,1.82,4.06,4.05,4.06ZM38.46,12.26h23.15v16.44h-2.16c0-.09-.02-.19-.07-.27l-1.06-1.51s-.05-.06-.08-.09l-1.18-.94-.73-1.47s-.06-.09-.11-.13l-1.08-.91-1.08-1.24-1.04-1.29s-.07-.07-.12-.1l-2.14-1.22c-.05-.03-.12-.05-.18-.05l-1.89-.1c-.06,0-.12,0-.18.03l-2.22.93c-.08.03-.14.09-.19.16l-2.13,3.55-2.21,2.12s-.04.05-.06.07l-1.44,2.24c-.04.07-.06.14-.06.22h-1.75V12.26ZM45.88,22.99c-.08-.08-.2-.08-.27,0l-.07.07,1.22-2.03,2.01-.84,1.7.09,1.99,1.14.99,1.23s0,0,0,.01l1.11,1.27s.03.03.05.05l1.04.87.74,1.47c.03.05.06.1.11.13l1.2.96.89,1.28h-17.49l1.27-1.98,2.21-2.13s.05-.05.07-.08l.15-.25s.09-.02.12-.05l.95-.95c.07-.08.07-.2,0-.27ZM38.46,33.04c.83-.07,1.29-.29,1.88-.59.83-.41,1.86-.92,3.75-.92s2.92.51,3.74.92c.71.36,1.23.61,2.42.61s1.71-.26,2.42-.61c.83-.41,1.85-.92,3.75-.92s2.92.51,3.74.92c.48.24.87.43,1.44.53v3c-1.29-.14-2.09-.54-2.76-.87-.71-.36-1.23-.61-2.42-.61s-1.71.26-2.42.61c-.83.41-1.85.92-3.75.92s-2.92-.51-3.75-.92c-.72-.36-1.23-.61-2.42-.61s-1.71.26-2.42.61c-.74.37-1.65.82-3.21.91v-2.98ZM38.46,38.58c.83-.07,1.29-.29,1.88-.59.83-.41,1.86-.92,3.75-.92s2.92.51,3.74.92c.71.36,1.23.61,2.42.61s1.71-.26,2.42-.61c.83-.41,1.85-.92,3.75-.92s2.92.51,3.74.92c.48.24.87.43,1.44.53v1.02c0,.71-.25,1.37-.67,1.88-.91-.18-1.54-.5-2.09-.77-.71-.36-1.23-.61-2.42-.61s-1.71.25-2.42.61c-.83.41-1.85.92-3.75.92s-2.92-.51-3.75-.92c-.72-.36-1.23-.61-2.42-.61s-1.71.25-2.42.61c-.62.31-1.36.67-2.48.83-.45-.52-.73-1.2-.73-1.95v-.96Z"/>
  <path class="st0" d="M45.72,23.62l-.79.78c-.07.08-.07.2,0,.27.04.04.09.06.14.06.05,0,.1-.02.13-.06l.79-.79c.08-.07.08-.2,0-.27-.07-.08-.2-.08-.27,0Z"/>
  <path class="st0" d="M45.72,24.29l-.45.45c-.08.08-.08.2,0,.27.04.04.09.06.14.06s.1-.02.14-.06l.45-.45c.08-.08.08-.2,0-.27-.07-.07-.2-.07-.27,0Z"/>
  <path class="st0" d="M48.69,26.96s.1-.02.13-.06l.95-.95c.08-.08.08-.2,0-.27-.07-.08-.2-.08-.27,0l-.95.95c-.07.07-.07.2,0,.27.04.04.09.06.14.06Z"/>
  <path class="st0" d="M49.62,26.32l-.79.78c-.07.08-.07.2,0,.27.04.04.09.06.14.06s.1-.02.14-.06l.78-.78c.08-.08.08-.2,0-.27-.07-.07-.2-.07-.27,0Z"/>
  <path class="st0" d="M49.62,26.99l-.45.45c-.07.08-.07.2,0,.27.04.04.09.05.14.05.05,0,.1-.02.13-.05l.45-.45c.08-.07.08-.2,0-.27-.07-.08-.2-.08-.27,0Z"/>
  <path class="st0" d="M51.81,24.5c.05,0,.1-.02.14-.06l.95-.95c.08-.07.08-.2,0-.27-.07-.08-.2-.08-.27,0l-.95.95c-.07.07-.07.2,0,.27.04.04.09.06.14.06Z"/>
  <path class="st0" d="M52.74,23.86l-.78.79c-.08.08-.08.2,0,.27.04.04.08.05.13.05.05,0,.1-.02.14-.05l.78-.79c.08-.07.08-.2,0-.27-.07-.07-.2-.07-.27,0Z"/>
  <path class="st0" d="M52.74,24.53l-.45.45c-.07.08-.07.2,0,.27.04.04.09.06.14.06s.1-.02.14-.06l.45-.45c.08-.08.08-.2,0-.27-.07-.08-.2-.08-.27,0Z"/>
  <path class="st0" d="M54.85,27.63c.05,0,.1-.02.14-.05l.95-.95c.08-.07.08-.2,0-.27-.07-.08-.2-.08-.27,0l-.95.95c-.07.07-.07.2,0,.27.04.04.09.05.13.05Z"/>
  <path class="st0" d="M55.78,26.99l-.78.79c-.07.07-.07.2,0,.27.04.03.09.05.14.05s.1-.02.13-.05l.79-.79c.07-.07.07-.2,0-.27-.08-.07-.2-.07-.28,0Z"/>
  <path class="st0" d="M55.78,27.66l-.45.45c-.07.07-.07.2,0,.27.04.04.09.06.14.06.05,0,.1-.02.14-.06l.45-.45c.07-.07.07-.2,0-.27-.08-.08-.2-.08-.28,0Z"/>
  <path class="st0" d="M27.72,26.89s.1-.03.12-.08c.02-.04.01-.1-.02-.14-.25-.31-.51-.47-.78-.47-.58,0-1,.74-1.18,1.22-.28-.11-.99-.53-1.44-.8-.21-.13-.42-.24-.58-.34.29-.16.47-.51.49-1.01.06-1.24-.85-3.05-2.45-3.2-.27-.02-.55-.06-.82-.1-.48-.06-.97-.13-1.41-.13-.84,0-1.96.22-1.96,2.12,0,.07.05.12.11.13,1.05.16,2.12.18,3.17.06.1,1.04.01,2.07-.25,3.08-.01.04,0,.09.03.12.03.03.07.05.12.05.56-.05,1.01.27,1.49.6.48.34,1.03.72,1.77.78-.1.3-.11.61-.06.92,0,.04.03.07.06.09.04.02.08.03.12,0,.43-.16.69-.08.84.27,0,.05.02.12.06.19,0,0,0,0,0,0,0,0,.02.02.03.03.02.02.04.03.06.03,0,0,.01,0,.02,0,0,0,0,0,0,0,.08,0,.14-.06.14-.13.16-.75.89-.81,1.68-.81h.3s0,0,0,0c.07,0,.14-.06.14-.13,0-.04-.02-.07-.04-.1-.12-.21-.17-1.51.08-2.07.05-.11.1-.18.15-.18Z"/>
  <path class="st0" d="M9.75,11.26c.08,0,.28.05.48.09.34.08.78.18,1.11.18.36,0,.52-.12.58-.26.26.15.24.38.19.71-.04.24-.07.48.09.65.03.03.07.04.11.04.04,0,.08-.03.1-.06.27-.41.3-.82.34-1.21.03-.37.06-.72.29-1.05.66.01,1.08.18,1.25.51.51.94-.93,3.08-1.98,4.65-.53.79-.96,1.42-1.08,1.8,0,0,0,.01,0,.02-.21,1.42.13,2.76.92,3.67.79.91,1.95,1.32,3.28,1.13-.54.61-.76,1.36-.96,2.04-.28.95-.49,1.7-1.49,1.7-.29,0-.63-.06-1.04-.18-.04-.01-.08,0-.12.02-.04.03-.05.06-.05.11,0,.45.04.82.07,1.15.05.57.1,1.02-.06,1.61,0,.04,0,.09.03.13.03.03.08.05.12.04.12-.02.22-.03.3-.03.09,0,.21.01.25.08.03.05.06.25-.3.81-.03.04-.03.11,0,.15.03.05.09.06.14.05.07-.02.15-.02.22-.03.01,0,.02,0,.03,0-.02.08-.03.16-.05.25-.03.14-.06.28-.09.41-.01.04,0,.08.02.12.02.02.04.04.06.05.23.16,2.23,2.42,2.53,2.9.02.04.07.06.12.06h0c.05,0,.1-.04.11-.08.38-.94,1.09-1.16,2.15-.71.02,0,.04,0,.05,0,.07,0,.13-.06.13-.13,0-.03-.01-.06-.03-.08-.32-.62-.27-.86-.22-.96.07-.12.28-.16.6-.12,0,0,.01,0,.02,0h0c.08,0,.14-.06.14-.14,0-.02,0-.04,0-.05-.15-.73-.53-.84-.74-.84-.31,0-.68.24-.92.6-.62.04-1.05-.16-1.3-.6-.36-.62-.21-1.52.11-2.08.14-.24.44-.65.91-.65.39,0,.8.3,1.2.86.03.04.09.06.14.05.05-.01.09-.06.1-.12.08-.71,0-1.49-.09-2.32-.18-1.76-.36-3.59,1.09-4.59.76-.53,1.43-.89,2.07-1.25,1.21-.67,2.25-1.25,3.36-2.59.15.09.31.17.47.25.72.38,1.15.64.95,1.13-.02.05-.02.1.02.14.03.04.08.06.13.04.01,0,.03,0,.06,0,.55,0,1.42.1,1.64.22-.29.39-.21.7-.14.86.13.27.41.45.72.45s.64-.19.7-.71c.46.11,1.88.53,2.02.59.03.01.06.01.1,0,.05-.02.09-.06.09-.12.08-1-.39-1.12-.77-1.22-.15-.04-.28-.07-.38-.15,0-.08,0-.18-.04-.27.61-.35.57-.6.46-.89-.06-.17-.11-.29.14-.53.04-.03.05-.08.04-.13-.01-.04-.04-.08-.09-.1-.53-.16-.89-.12-1.08.12-.13.16-.18.4-.14.73-.87-.15-2.46-1.44-2.95-2.61-.21-.52-.18-.94.09-1.24.25,0,.27.03.47.27.04.04.09.06.14.04.05-.02.09-.06.09-.12,0-.08,0-.17.01-.25.03-.62.07-.77.32-.77.12,0,.29.03.51.11.01,0,.03,0,.04,0h0c.07,0,.13-.06.13-.13,0-.03-.01-.06-.02-.08-.21-.47-.11-1.08.28-1.68.5-.78,1.32-1.35,1.95-1.35.1,0,.2.02.29.05.02,0,.03,0,.04,0h0c.08,0,.14-.06.14-.13,0,0,0-.02,0-.03-.01-.41-.21-.89-1.08-.89-.15,0-.31.02-.5.04.09-.34.22-.61.37-.89.19-.37.39-.76.46-1.33,0-.04,0-.08-.04-.11-.03-.03-.07-.04-.11-.04-1.01.12-1.15.43-1.24.86-.05.26-.1.51-.58.73-.39-.31-.38-.32-.35-.44.03-.11.07-.28.04-.6,0-.07-.07-.12-.14-.12-.6,0-.62,0-1.01.21-.04.02-.06.06-.07.11-.04.53.2.77.38.96.22.23.38.39.08,1.07-.29.65-.91,1.34-1.52,2-.4.44-.78.85-1.06,1.26-.68-.92-1.32-.99-2.02-.99h-.32c-.46,0-.96-.03-1.54-.34.05-.38.22-.38.31-.38.13,0,.3.05.48.1.2.06.4.12.59.12.08,0,.15-.01.21-.03.05-.02.08-.06.09-.11.14-.8-.41-.94-.85-1.05-.4-.1-.78-.2-.89-.68.88.11,1.66.31,2.53.62,0,0,0,0,0,0h0s.01,0,.02,0h0s.02,0,.02,0c.46-.19.76-.32,1.05-.73.02-.02.02-.05,0-.07-.01-.02-.04-.04-.06-.04-.12,0-.24.01-.37.01-.33,0-.67-.02-.99-.04-.33-.02-.67-.05-1-.05-.49,0-.88.05-1.23.16-.02-.15-.01-.33.02-.55.17,0,.34,0,.5.02.17,0,.33.01.48.01.39,0,.78-.04,1.03-.31.24-.27.3-.7.21-1.4,0-.06-.06-.11-.12-.12-.35-.03-.7-.05-1.05-.05-1.67,0-3.27.39-4.47.73-.03,0-.05.03-.07.05-.92,1.25-.45,4.16.08,5.43.07.16.73,1.14,1.01,1.56.53.79.78,1.13.9,1.29-.54.87-1.03,1.78-1.45,2.71-.54,1.16-1.35,1.8-2.29,1.8-.79,0-1.58-.47-2.08-1.22-.6-.92-.68-2.07-.21-3.17.21-.48.6-1.1,1.01-1.75,1.02-1.61,2.28-3.61,1.69-5.02-.31-.74-1.08-1.22-2.34-1.48-.02,0-.04,0-.06,0-.45.12-.76.22-1.01.31-.63.21-.86.28-1.83.28-.04,0-.08.02-.11.06-.02.03-.03.08-.02.12.08.23.33.47.59.71.25.24.55.5.54.68,0,.02,0,.05-.03.08h-.03c-.2-.05-.46-.1-.71-.1-.3,0-.51.08-.64.23-.13.15-.17.37-.13.66.01.06.07.11.13.11ZM22.8,10.22s-.01,0-.02.01c-.05-.02-.09-.03-.12-.05.06,0,.12.02.14.04ZM19.79,7.66c.11,0,.21-.02.31-.02.13,0,.26-.02.38-.03-.06.27-.23.37-.38.37s-.31-.1-.38-.28c.03-.01.06-.03.08-.04Z"/>
  <path class="st0" d="M73.52,27.42c-.17-.48-.6-1.22-1.18-1.22-.27,0-.54.16-.78.47-.03.04-.03.09-.02.14.02.05.07.08.12.08.04,0,.1.07.15.18.25.56.2,1.86.08,2.07-.03.02-.04.06-.04.1,0,.07.06.14.13.13h.31c.79,0,1.51.06,1.68.81,0,.08.06.13.14.13,0,0,.01,0,.01,0,0,0,.01,0,.02,0,.02,0,.04-.02.06-.03,0,0,.02-.02.02-.03h0c.04-.07.06-.14.06-.19.14-.35.41-.43.84-.27.04.02.08.01.11,0,.04-.02.06-.05.07-.09.05-.31.03-.62-.06-.92.75-.06,1.29-.44,1.77-.78.48-.33.92-.64,1.49-.6.04,0,.08-.01.11-.05.03-.03.04-.08.03-.12-.26-1.01-.34-2.05-.25-3.08,1.06.13,2.12.11,3.17-.06.07-.01.12-.07.12-.13,0-1.89-1.12-2.12-1.96-2.12-.44,0-.93.07-1.41.13-.27.04-.55.08-.82.1-1.6.15-2.51,1.97-2.45,3.2.02.5.2.85.49,1.01-.16.09-.36.21-.58.34-.45.27-1.17.69-1.44.8Z"/>
  <path class="st0" d="M30.4,53.32l.94.42.63-.86,1.2.53-.21,1.04.94.42.81-5.02-1.12-.5-3.18,3.97ZM33.81,50.38l-.46,2.21-.88-.39,1.33-1.83h.01Z"/>
  <path class="st0" d="M42.6,52.2l-1.8-.34-.92,4.83.97.18.39-2.04.52.1c.39.07.52.34.46.72l-.15.93c-.03.19-.04.38.03.53l1.06.2v-.04c-.16-.13-.13-.4-.05-.91.18-1.03.15-1.41-.5-1.62h0c.57-.03.91-.41,1.03-1.05.16-.82-.25-1.34-1.05-1.49ZM42.65,53.65c-.1.52-.4.67-.87.59l-.41-.08.26-1.39.46.09c.44.08.63.35.55.8Z"/>
  <rect class="st0" x="49.48" y="52.81" width=".99" height="4.91" transform="translate(-.83 .76) rotate(-.87)"/>
  <path class="st0" d="M58.75,54.76c.23,1.03.01,1.27-.34,1.35-.42.09-.68-.13-.99-1.58-.3-1.36-.29-1.87.2-1.98.44-.1.64.17.8.87l.97-.21c-.15-.7-.48-1.69-1.86-1.39-1.45.32-1.4,1.39-1.09,2.85.32,1.46.73,2.46,2.18,2.14,1.27-.28,1.33-1.23,1.1-2.26l-.97.21Z"/>
  <path class="st0" d="M64.88,49.46l.93,5.01.93-.44-.24-1.04,1.18-.56.65.84.93-.44-3.29-3.89-1.11.52ZM66.32,52.17l-.52-2.2h.02s1.38,1.79,1.38,1.79l-.87.41Z"/>
</svg>