<?xml version="1.0" encoding="UTF-8"?>
<svg id="Capa_1" xmlns="http://www.w3.org/2000/svg" version="1.1" viewBox="0 0 800 219.7">
  <!-- Generator: Adobe Illustrator 29.8.2, SVG Export Plug-In . SVG Version: 2.1.1 Build 3)  -->
  <defs>
    <style>
      .st0 {
        fill: #ff6848;
      }

      .st1 {
        fill: #00a6e4;
      }

      .st2 {
        fill: #ffc94a;
      }

      .st3 {
        fill: #fff;
      }

      .st4 {
        fill: #02b992;
      }
    </style>
  </defs>
  <g>
    <rect class="st3" x="537.08" y="36.32" width="2.91" height="101.68"/>
    <path class="st3" d="M331.32,100.69h20.58l-14.22-24.5c.19-.1.38-.18.56-.28,3.45-1.88,6.14-4.48,8.08-7.8,1.94-3.32,2.91-7.14,2.91-11.44,0-4-.97-7.54-2.91-10.61-1.94-3.08-4.63-5.51-8.08-7.29-3.45-1.78-7.35-2.68-11.72-2.68h-29.81v59l-23.35-59h-14.77l-25.75,64.61h17.81l3.95-10.71h22.18l3.95,10.71h33.13v-21.97h5.07l12.37,21.97ZM259.38,77.06l2.35-6.37c.61-1.72,1.18-3.29,1.71-4.71.52-1.41,1-2.77,1.43-4.06.3-.91.6-1.87.89-2.85.28.96.57,1.91.87,2.85.43,1.35.89,2.74,1.38,4.15.49,1.42,1.05,2.95,1.66,4.61l2.35,6.37h-12.64ZM313.87,50.76h9.41c1.78,0,3.28.29,4.48.88,1.2.59,2.11,1.42,2.72,2.49.61,1.08.92,2.35.92,3.83s-.29,2.88-.88,4.01c-.59,1.14-1.42,2.03-2.49,2.68-1.08.65-2.42.97-4.01.97h-10.15v-14.86Z"/>
    <path class="st3" d="M373.12,36.08h-18.27v64.61h18.27V36.08Z"/>
    <path class="st3" d="M436.9,92.66l-8.68-13.75c-1.11,1.11-2.37,2.12-3.78,3.05-1.42.92-2.97,1.66-4.66,2.21-1.69.55-3.49.83-5.4.83-2.71,0-5.15-.4-7.34-1.2-2.18-.8-4.06-1.92-5.63-3.37-1.57-1.44-2.77-3.2-3.6-5.26-.83-2.06-1.25-4.38-1.25-6.97s.42-5.11,1.25-7.2c.83-2.09,1.98-3.88,3.46-5.35,1.48-1.48,3.21-2.6,5.21-3.37,2-.77,4.14-1.15,6.41-1.15,1.97,0,3.77.26,5.4.78,1.63.52,3.09,1.25,4.38,2.17,1.29.92,2.46,1.97,3.51,3.14l10.98-12.74c-2.03-2.21-4.34-4.06-6.92-5.54-2.58-1.48-5.34-2.6-8.26-3.37-2.92-.77-5.92-1.15-9-1.15-5.11,0-9.82.83-14.12,2.49-4.31,1.66-8.03,4-11.17,7.01-3.14,3.02-5.58,6.57-7.34,10.66-1.75,4.09-2.63,8.57-2.63,13.43s.85,9.43,2.54,13.52c1.69,4.09,4.09,7.63,7.2,10.61,3.11,2.99,6.78,5.31,11.03,6.97,4.25,1.66,8.89,2.49,13.94,2.49,3.2,0,6.38-.39,9.55-1.15,3.17-.77,6.06-1.83,8.68-3.18,2.61-1.35,4.69-2.89,6.23-4.61Z"/>
    <path class="st3" d="M500.39,100.69l-25.57-64.61h-14.77l-25.75,64.61h17.81l3.95-10.71h22.18l3.95,10.71h18.18ZM460.85,77.06l2.35-6.37c.61-1.72,1.18-3.29,1.71-4.71.52-1.41,1-2.77,1.43-4.06.3-.91.6-1.87.89-2.85.28.96.57,1.91.87,2.85.43,1.35.89,2.74,1.38,4.15.49,1.42,1.05,2.95,1.66,4.61l2.35,6.37h-12.64Z"/>
    <path class="st3" d="M245.43,125.67l-7.47-12.16h-4.2v23.9h4.4v-8.98c0-2.21-.05-4.11-.15-5.72-.04-.59-.09-1.18-.15-1.77l6.31,9.98h2.25l6.5-10.03c-.07.67-.12,1.34-.17,2.01-.1,1.64-.15,3.48-.15,5.53v8.98h4.4v-23.9h-3.99l-7.58,12.16Z"/>
    <path class="st3" d="M278.04,127.91c0,1.07-.24,2.02-.73,2.85-.49.83-1.16,1.5-2,2-.84.5-1.79.75-2.83.75-.96,0-1.84-.25-2.66-.75s-1.47-1.17-1.96-2c-.49-.83-.73-1.78-.73-2.85v-14.44h-4.47v14.75c0,1.8.43,3.41,1.28,4.83.85,1.42,2.02,2.54,3.5,3.35,1.48.81,3.16,1.21,5.05,1.21s3.61-.4,5.09-1.21c1.48-.81,2.65-1.92,3.5-3.35.85-1.42,1.28-3.03,1.28-4.83v-14.75h-4.3v14.44Z"/>
    <path class="st3" d="M304.39,120.67c0,.98.01,1.91.03,2.78.02.88.05,1.71.09,2.51.03.8.08,1.56.14,2.29.06.73.12,1.43.19,2.1.02.2.04.39.06.58l-12.94-17.43h-3.99v23.9h4.4v-9.25c0-.32,0-.65-.02-1.01-.01-.35-.03-.75-.07-1.18-.03-.43-.07-.97-.12-1.62-.05-.65-.11-1.42-.19-2.32-.04-.49-.09-1.05-.15-1.66l12.9,17.04h4.06v-23.9h-4.4v7.17Z"/>
    <path class="st3" d="M316.99,113.5h-2.22v23.9h4.44v-23.9h-2.22Z"/>
    <path class="st3" d="M330.25,119.72c.67-.71,1.47-1.25,2.39-1.64.92-.39,1.91-.58,2.95-.58.71,0,1.39.11,2.07.32.67.22,1.32.53,1.95.96.63.42,1.23.94,1.83,1.55l2.83-3.11c-.61-.8-1.38-1.5-2.29-2.1-.91-.6-1.91-1.08-3-1.42-1.09-.34-2.22-.51-3.38-.51-1.71,0-3.29.31-4.75.92-1.46.61-2.73,1.48-3.82,2.59-1.09,1.12-1.95,2.41-2.56,3.89-.61,1.48-.92,3.08-.92,4.81s.29,3.45.87,4.97c.58,1.51,1.39,2.82,2.44,3.93,1.05,1.1,2.29,1.95,3.72,2.54,1.43.59,3.02.89,4.75.89,1.12,0,2.24-.14,3.36-.43,1.13-.28,2.15-.68,3.06-1.18.91-.5,1.64-1.06,2.18-1.67l-2.18-3.52c-.5.5-1.05.94-1.66,1.31-.6.38-1.26.67-1.96.87s-1.43.31-2.18.31c-1.16,0-2.22-.19-3.19-.56-.97-.38-1.8-.92-2.49-1.62-.69-.71-1.23-1.55-1.6-2.53-.38-.98-.56-2.07-.56-3.28s.19-2.26.58-3.23c.39-.97.92-1.8,1.59-2.51Z"/>
    <path class="st3" d="M350.31,113.5h-2.22v23.9h4.44v-23.9h-2.22Z"/>
    <path class="st3" d="M374.79,117.19c-.66-1.14-1.54-2.04-2.65-2.7-1.1-.66-2.34-.99-3.7-.99h-9.93v23.9h4.44v-8.74h5.5c1.37,0,2.6-.34,3.7-1.02,1.1-.68,1.99-1.6,2.65-2.75.66-1.15.99-2.44.99-3.87s-.33-2.69-.99-3.82ZM370.81,122.82c-.28.52-.66.94-1.13,1.26-.47.32-.98.48-1.55.48h-5.19v-6.96h5.19c.57,0,1.09.15,1.55.46.47.31.84.72,1.13,1.23.28.51.43,1.1.43,1.76s-.14,1.25-.43,1.77Z"/>
    <path class="st3" d="M384.41,113.5l-9.32,23.9h4.44l2.07-5.46h9.56l2.06,5.46h4.61l-9.25-23.9h-4.17ZM383.07,128.08l1.58-4.17c.16-.45.34-.97.53-1.54.19-.57.39-1.16.6-1.78s.4-1.21.58-1.78c.02-.05.03-.1.05-.15.18.59.38,1.23.6,1.91.23.69.44,1.34.63,1.93.19.59.35,1.02.46,1.3l1.61,4.27h-6.64Z"/>
    <polygon class="st3" points="405.51 113.5 401.07 113.5 401.07 137.4 416.54 137.4 416.54 133.3 405.51 133.3 405.51 113.5"/>
    <path class="st3" d="M423.4,113.5h-2.22v23.9h4.44v-23.9h-2.22Z"/>
    <path class="st3" d="M449.5,116.81c-1.01-1.07-2.22-1.89-3.62-2.46-1.4-.57-2.96-.85-4.69-.85h-9.59v23.9h9.59c1.73,0,3.3-.28,4.71-.85,1.41-.57,2.62-1.38,3.62-2.44,1-1.06,1.77-2.32,2.3-3.79.53-1.47.8-3.09.8-4.86s-.27-3.39-.8-4.85c-.54-1.46-1.31-2.72-2.32-3.79ZM447.64,128.71c-.32.97-.79,1.79-1.4,2.48-.61.68-1.36,1.21-2.24,1.57-.88.36-1.87.55-2.99.55h-4.98v-15.7h4.98c1.12,0,2.1.18,2.97.55.86.36,1.61.89,2.24,1.57.63.68,1.1,1.51,1.42,2.48.32.97.48,2.05.48,3.26s-.16,2.29-.48,3.26Z"/>
    <path class="st3" d="M462.9,113.5l-9.32,23.9h4.44l2.07-5.46h9.56l2.06,5.46h4.61l-9.25-23.9h-4.17ZM461.56,128.08l1.58-4.17c.16-.45.34-.97.53-1.54.19-.57.39-1.16.6-1.78s.4-1.21.58-1.78c.02-.05.03-.1.05-.15.18.59.38,1.23.6,1.91.23.69.44,1.34.63,1.93.19.59.35,1.02.46,1.3l1.61,4.27h-6.64Z"/>
    <path class="st3" d="M497.46,116.81c-1.01-1.07-2.22-1.89-3.62-2.46-1.4-.57-2.96-.85-4.69-.85h-9.59v23.9h9.59c1.73,0,3.3-.28,4.71-.85,1.41-.57,2.62-1.38,3.62-2.44,1-1.06,1.77-2.32,2.3-3.79.53-1.47.8-3.09.8-4.86s-.27-3.39-.8-4.85c-.54-1.46-1.31-2.72-2.32-3.79ZM495.6,128.71c-.32.97-.79,1.79-1.4,2.48-.61.68-1.36,1.21-2.24,1.57-.88.36-1.87.55-2.99.55h-4.98v-15.7h4.98c1.12,0,2.1.18,2.97.55.86.36,1.61.89,2.24,1.57.63.68,1.1,1.51,1.42,2.48.32.97.48,2.05.48,3.26s-.16,2.29-.48,3.26Z"/>
    <path class="st3" d="M618.72,52.82c-1.31-.81-2.91-1.21-4.8-1.21-1.1,0-2.18.16-3.23.49-1.05.33-2.01.78-2.89,1.37-.88.59-1.65,1.25-2.32,1.99-.6.66-1.06,1.34-1.4,2.04-.36-1.1-.81-2.04-1.34-2.81-.77-1.12-1.72-1.91-2.84-2.37-1.12-.46-2.38-.7-3.79-.7-1.17,0-2.29.16-3.35.49-1.07.33-2.05.8-2.94,1.42-.9.62-1.66,1.35-2.3,2.19-.23.31-.44.64-.62.97l-.08-4.56h-3.87v26.94h3.92v-16.36c0-1.03.2-1.99.59-2.89.39-.89.95-1.69,1.65-2.37.7-.69,1.54-1.23,2.5-1.63.96-.4,2.01-.59,3.15-.59,1.31,0,2.41.29,3.3.88.89.59,1.57,1.45,2.04,2.58.46,1.13.7,2.56.7,4.28v16.1h3.92v-16.31c0-1.03.2-2,.59-2.89.39-.89.95-1.69,1.65-2.4.7-.7,1.55-1.26,2.53-1.65.98-.4,2.06-.59,3.23-.59,1.34,0,2.45.28,3.33.85.88.57,1.54,1.42,1.99,2.55.45,1.14.67,2.6.67,4.39v16.05h3.97v-16.26c0-2.55-.34-4.64-1.01-6.3-.67-1.65-1.66-2.88-2.97-3.69Z"/>
    <path class="st3" d="M634.48,77.82c2.08,1.17,4.46,1.75,7.15,1.75,1.38,0,2.72-.18,4.03-.54,1.31-.36,2.51-.84,3.61-1.45,1.1-.6,2.05-1.3,2.84-2.09l-2.01-2.79c-1.51,1.27-2.9,2.12-4.15,2.55-1.26.43-2.52.64-3.79.64-2.17,0-4.02-.43-5.55-1.29-1.53-.86-2.71-2.07-3.53-3.64-.71-1.35-1.11-2.9-1.21-4.67h21.34l.05-1.81c.07-1.89-.17-3.63-.72-5.21-.55-1.58-1.37-2.95-2.45-4.1-1.08-1.15-2.37-2.06-3.87-2.71-1.5-.65-3.16-.98-4.98-.98-1.93,0-3.72.35-5.37,1.06-1.65.71-3.07,1.69-4.26,2.97-1.19,1.27-2.11,2.76-2.76,4.46-.65,1.7-.98,3.6-.98,5.7,0,2.72.58,5.13,1.75,7.22,1.17,2.1,2.8,3.73,4.88,4.9ZM632.96,59.81c.76-1.51,1.84-2.66,3.25-3.43,1.41-.77,3.08-1.16,5.01-1.16,1.65,0,3.07.36,4.26,1.08s2.11,1.66,2.76,2.81c.65,1.15,1.01,2.35,1.08,3.59v.36h-17.33c.18-1.22.5-2.31.97-3.25Z"/>
    <path class="st3" d="M662.02,85.25c.69-1.24,1.03-2.68,1.03-4.34v-28.8h-3.92v27.66c0,1.38-.2,2.54-.59,3.48-.4.95-1.03,1.65-1.91,2.12-.88.46-2.02.7-3.43.7l1.55,3.1c1.69,0,3.15-.34,4.39-1.03,1.24-.69,2.2-1.65,2.89-2.89Z"/>
    <path class="st3" d="M661.14,46.29c.93,0,1.65-.26,2.17-.77s.77-1.19.77-2.01c0-.89-.26-1.59-.77-2.09-.52-.5-1.24-.75-2.17-.75s-1.65.26-2.17.77-.77,1.2-.77,2.06.26,1.54.77,2.04c.52.5,1.24.75,2.17.75Z"/>
    <path class="st3" d="M696.13,65.49c0-2.68-.59-5.07-1.78-7.17-1.19-2.1-2.82-3.75-4.9-4.95-2.08-1.2-4.45-1.81-7.1-1.81s-5.07.6-7.15,1.81c-2.08,1.2-3.72,2.86-4.9,4.95-1.19,2.1-1.78,4.49-1.78,7.17s.59,5.14,1.78,7.28c1.19,2.13,2.82,3.8,4.9,5.01,2.08,1.2,4.46,1.81,7.15,1.81s5.01-.6,7.1-1.81c2.08-1.2,3.72-2.87,4.9-5.01,1.19-2.13,1.78-4.56,1.78-7.28ZM690.86,70.83c-.83,1.57-1.98,2.8-3.46,3.72-1.48.91-3.17,1.37-5.06,1.37s-3.59-.46-5.08-1.37c-1.5-.91-2.67-2.15-3.51-3.72-.84-1.56-1.25-3.35-1.21-5.34-.03-1.96.37-3.72,1.21-5.29.84-1.56,2.01-2.79,3.51-3.66,1.5-.88,3.19-1.32,5.08-1.32s3.58.44,5.06,1.32c1.48.88,2.63,2.09,3.46,3.64.83,1.55,1.24,3.32,1.24,5.32s-.41,3.78-1.24,5.34Z"/>
    <path class="st3" d="M705.42,63.78c0-1.1.17-2.13.52-3.1.34-.96.84-1.81,1.5-2.55.65-.74,1.45-1.32,2.37-1.73s1.98-.62,3.15-.62c.41,0,.85.04,1.32.13.46.09.92.23,1.37.44l1.08-4.34c-.34-.14-.77-.25-1.29-.34-.52-.09-1.07-.13-1.65-.13-1.41,0-2.7.31-3.87.93-1.17.62-2.18,1.44-3.02,2.48-.6.74-1.08,1.52-1.45,2.35l-.07-5.19h-3.87v26.94h3.92v-15.28Z"/>
    <path class="st3" d="M593.02,107.77c.86-.52,1.86-.77,2.99-.77.86,0,1.64.11,2.35.34.7.22,1.35.53,1.94.93.58.4,1.07.83,1.44,1.32l5.21-6.19c-1.24-1.48-2.9-2.61-4.98-3.41-2.08-.79-4.36-1.19-6.84-1.19-2.72,0-5.15.62-7.3,1.86-2.15,1.24-3.84,2.93-5.08,5.08-1.24,2.15-1.86,4.6-1.86,7.35s.62,5.2,1.86,7.35c1.24,2.15,2.93,3.84,5.08,5.08,2.15,1.24,4.58,1.86,7.3,1.86,2.44,0,4.7-.4,6.79-1.19,2.08-.79,3.76-1.91,5.03-3.35l-5.21-6.24c-.41.52-.9.96-1.47,1.34-.57.38-1.2.67-1.91.88-.71.21-1.49.31-2.35.31-1.14,0-2.14-.28-3.02-.83-.88-.55-1.54-1.27-1.99-2.17-.45-.89-.67-1.93-.67-3.1s.23-2.21.7-3.12c.46-.91,1.13-1.63,1.99-2.14Z"/>
    <rect class="st3" x="611.29" y="99.36" width="9.6" height="27.51"/>
    <path class="st3" d="M619.74,86.02c-.89-.81-2.11-1.21-3.66-1.21s-2.77.44-3.66,1.32c-.89.88-1.33,2-1.33,3.38,0,1.48.43,2.62,1.3,3.43.87.81,2.1,1.21,3.68,1.21s2.73-.43,3.64-1.29c.9-.86,1.35-1.98,1.35-3.35,0-1.51-.44-2.67-1.33-3.48Z"/>
    <path class="st3" d="M645.19,115.72c0,.55-.1,1.06-.31,1.52-.21.46-.48.88-.83,1.24-.34.36-.77.63-1.26.8-.5.17-1.06.26-1.68.26-.79,0-1.46-.16-2.01-.49-.55-.33-.98-.8-1.29-1.42-.31-.62-.46-1.38-.46-2.27v-16h-9.6v16.98c0,2.34.38,4.33,1.14,5.99.76,1.65,1.86,2.92,3.3,3.79,1.45.88,3.2,1.32,5.26,1.32,1.51,0,2.94-.29,4.28-.88,1.34-.58,2.49-1.39,3.46-2.43.15-.16.29-.32.42-.49l.3,3.22h8.88v-27.51h-9.6v16.36Z"/>
    <path class="st3" d="M679.61,101.72c-.36-.34-.74-.66-1.16-.96-.88-.62-1.87-1.1-2.97-1.44-1.1-.34-2.25-.52-3.46-.52-2.34,0-4.42.62-6.24,1.86-1.82,1.24-3.26,2.93-4.31,5.08-1.05,2.15-1.57,4.62-1.57,7.41s.52,5.26,1.55,7.41c1.03,2.15,2.45,3.84,4.26,5.06,1.81,1.22,3.86,1.83,6.17,1.83,1.24,0,2.43-.16,3.59-.49,1.15-.33,2.17-.78,3.04-1.37.66-.44,1.24-.93,1.74-1.47l.3,2.76h8.72v-38.19h-9.65v13.04ZM679.25,116.57c-.41.95-1.02,1.69-1.81,2.22-.79.53-1.74.8-2.84.8s-2.05-.27-2.84-.8c-.79-.53-1.39-1.27-1.81-2.22-.41-.95-.62-2.09-.62-3.43s.21-2.5.62-3.48c.41-.98,1.01-1.72,1.81-2.22.79-.5,1.74-.75,2.84-.75s2.05.25,2.84.75c.79.5,1.39,1.24,1.81,2.22.41.98.62,2.14.62,3.48s-.21,2.49-.62,3.43Z"/>
    <path class="st3" d="M713.78,102.36c-.46-.56-.98-1.08-1.55-1.55-.79-.65-1.72-1.15-2.79-1.5-1.07-.34-2.24-.52-3.51-.52-2.37,0-4.47.61-6.3,1.83-1.82,1.22-3.25,2.9-4.28,5.03-1.03,2.13-1.55,4.61-1.55,7.43s.52,5.2,1.57,7.35c1.05,2.15,2.48,3.84,4.28,5.06,1.81,1.22,3.85,1.83,6.12,1.83,1.27,0,2.43-.18,3.48-.54,1.05-.36,2-.86,2.86-1.5.53-.39,1.01-.84,1.44-1.32v2.89h9.65v-27.51h-9.44v2.99ZM713.18,116.5c-.43.96-1.04,1.69-1.83,2.19-.79.5-1.74.75-2.84.75s-2.04-.25-2.81-.75c-.77-.5-1.37-1.23-1.78-2.19-.41-.96-.62-2.1-.62-3.41s.21-2.49.62-3.46c.41-.96,1.01-1.69,1.78-2.19.77-.5,1.71-.75,2.81-.75s2.05.25,2.84.75c.79.5,1.4,1.23,1.83,2.19.43.96.64,2.12.64,3.46s-.22,2.44-.64,3.41Z"/>
    <path class="st3" d="M747.94,88.68v13.04c-.36-.34-.74-.66-1.16-.96-.88-.62-1.87-1.1-2.97-1.44-1.1-.34-2.25-.52-3.46-.52-2.34,0-4.42.62-6.24,1.86-1.82,1.24-3.26,2.93-4.31,5.08-1.05,2.15-1.57,4.62-1.57,7.41s.52,5.26,1.55,7.41c1.03,2.15,2.45,3.84,4.26,5.06,1.81,1.22,3.86,1.83,6.17,1.83,1.24,0,2.43-.16,3.59-.49,1.15-.33,2.17-.78,3.04-1.37.66-.44,1.24-.93,1.74-1.47l.3,2.76h8.72v-38.19h-9.65ZM747.58,116.57c-.41.95-1.02,1.69-1.81,2.22-.79.53-1.74.8-2.84.8s-2.05-.27-2.84-.8c-.79-.53-1.39-1.27-1.81-2.22-.41-.95-.62-2.09-.62-3.43s.21-2.5.62-3.48c.41-.98,1.01-1.72,1.81-2.22.79-.5,1.74-.75,2.84-.75s2.05.25,2.84.75c.79.5,1.39,1.24,1.81,2.22.41.98.62,2.14.62,3.48s-.21,2.49-.62,3.43Z"/>
    <path class="st3" d="M63.79,38.32c.05.07.13.12.21.12.03,0,.05,0,.09-.02,1.58-.58,3.55-1.02,6.36-1.46.12-.02.21-.11.21-.23.04-.66.08-1.3.12-1.93.04-.59.07-1.16.11-1.76,0-.07-.02-.14-.07-.19-.05-.05-.11-.08-.18-.08h-.96c-.13,0-.24.1-.25.22-.06.52-.12,1.04-.19,1.55-.25.02-.53.06-.82.11-.02-.11-.04-.23-.07-.36-.07-.38-.13-.78-.18-1.15-.01-.13-.12-.22-.25-.22-.25,0-.44.04-.67.09-.08.02-.17.04-.27.06-.13.03-.22.15-.2.28.05.45.12.99.19,1.62-.11.03-.22.06-.34.09-.14.04-.29.08-.42.11-.19-.41-.44-1.02-.56-1.47-.03-.11-.13-.19-.24-.19-.21,0-.42.08-.61.15-.07.03-.14.06-.21.08-.11.04-.19.15-.18.27.05.43.13.77.23,1.15.04.15.07.31.11.48-.14.04-.26.09-.4.13-.13.05-.25.09-.37.13-.11-.22-.25-.48-.38-.73-.12-.23-.24-.46-.34-.64-.04-.09-.13-.14-.22-.14-.26,0-.53.14-.72.23l-.05.02c-.11.06-.17.18-.13.3.29.98.83,2.09,1.65,3.39Z"/>
    <path class="st3" d="M180.46,36.72c0,.12.1.21.21.23,2.82.44,4.77.88,6.36,1.46.03.01.06.02.09.02.08,0,.16-.04.21-.12.82-1.3,1.36-2.4,1.65-3.39.03-.12-.02-.25-.14-.3l-.05-.02c-.18-.09-.46-.23-.72-.23-.1,0-.18.05-.23.14-.09.18-.21.41-.33.64-.13.25-.27.51-.38.73-.12-.03-.24-.08-.37-.13-.13-.04-.26-.09-.4-.13.04-.18.08-.33.11-.48.09-.38.17-.72.23-1.15.01-.12-.06-.23-.18-.27-.06-.02-.14-.04-.21-.08-.19-.07-.41-.15-.61-.15-.11,0-.21.07-.24.19-.12.45-.37,1.06-.56,1.47-.14-.03-.28-.07-.42-.11-.11-.03-.23-.06-.34-.09.07-.63.14-1.16.2-1.62.02-.13-.07-.25-.2-.28-.1-.02-.19-.04-.27-.06-.23-.05-.42-.09-.67-.09-.12,0-.23.09-.25.22-.05.37-.12.76-.19,1.15-.02.12-.05.25-.06.36-.3-.05-.57-.08-.83-.11-.06-.51-.13-1.03-.19-1.55-.02-.12-.12-.22-.25-.22h-.96c-.07,0-.14.03-.19.08-.05.05-.07.12-.07.19.03.59.07,1.17.11,1.76.04.64.08,1.27.12,1.93Z"/>
    <path class="st3" d="M206.07,85.51l-4.34.05c-3.8.05-7.59.37-11.32.94.69-1.03,4.25-5.05,4.68-5.35.05-.02.09-.05.12-.09.05-.07.06-.15.04-.22-.07-.23-.11-.5-.17-.76-.03-.17-.06-.33-.09-.48.02,0,.04,0,.07,0,.14.02.29.03.41.06.1.03.21-.01.27-.1.06-.08.06-.2.01-.28-.68-1.06-.62-1.42-.56-1.52.07-.13.29-.15.47-.15.16,0,.35.02.57.06.09.02.17-.01.23-.07.06-.07.08-.16.06-.24-.31-1.09-.22-1.94-.12-3.01.06-.61.13-1.31.13-2.16,0-.08-.03-.15-.1-.2-.06-.05-.14-.07-.22-.04-.76.23-1.39.34-1.94.34-1.85,0-2.26-1.4-2.78-3.17-.37-1.26-.78-2.67-1.8-3.82,2.5.35,4.66-.4,6.15-2.11,1.48-1.71,2.11-4.22,1.73-6.88,0-.02-.01-.03-.02-.04-.22-.7-1.01-1.88-2.01-3.36-1.96-2.93-4.66-6.93-3.72-8.7.33-.61,1.11-.93,2.34-.95.42.63.48,1.28.54,1.97.07.73.14,1.5.64,2.26.04.07.11.11.19.11.08,0,.15-.02.2-.07.31-.32.24-.77.18-1.22-.1-.62-.13-1.05.35-1.33.12.25.41.48,1.09.48.63,0,1.44-.19,2.09-.34.38-.09.75-.18.9-.18.12,0,.23-.09.25-.21.08-.53,0-.96-.24-1.24-.24-.29-.64-.44-1.2-.44-.45,0-.94.09-1.32.17h-.06c-.04-.05-.05-.1-.05-.14-.01-.32.54-.82,1.01-1.27.5-.46.97-.89,1.11-1.33.02-.08,0-.16-.04-.23-.05-.07-.12-.11-.21-.11-1.81,0-2.25-.14-3.41-.52-.48-.15-1.06-.34-1.9-.57-.04-.01-.08-.01-.12,0-2.36.48-3.79,1.39-4.37,2.77-1.12,2.63,1.25,6.38,3.15,9.39.77,1.22,1.51,2.38,1.89,3.28.88,2.05.73,4.21-.39,5.93-.93,1.41-2.42,2.29-3.89,2.29-1.77,0-3.29-1.2-4.29-3.37-.8-1.73-1.71-3.44-2.72-5.06.23-.29.69-.94,1.69-2.41.53-.78,1.78-2.61,1.9-2.91.97-2.38,1.85-7.81.13-10.16-.03-.05-.08-.08-.13-.1-2.25-.64-5.24-1.37-8.37-1.37-.67,0-1.33.03-1.97.09-.12.01-.21.11-.23.22-.16,1.32-.04,2.13.4,2.63.46.51,1.2.59,1.92.59.28,0,.58-.01.9-.02.3-.02.61-.03.94-.03.06.41.06.75.03,1.02-.65-.21-1.38-.31-2.29-.31-.62,0-1.26.05-1.88.09-.62.04-1.25.08-1.86.08-.25,0-.48,0-.7-.02-.05,0-.1.02-.12.07-.02.04-.02.09.01.14.55.77,1.11,1.02,1.96,1.37.02,0,.03,0,.04.01h0s.03,0,.04,0h0c1.63-.6,3.1-.96,4.75-1.17-.21.89-.93,1.08-1.67,1.27-.83.21-1.85.46-1.59,1.96.02.09.08.17.18.2.12.04.25.06.4.06.36,0,.74-.11,1.1-.22.33-.1.64-.19.9-.19.18,0,.49,0,.58.72-1.07.59-2,.64-2.87.64h-.59c-1.31,0-2.5.14-3.78,1.86-.53-.75-1.24-1.53-1.99-2.35-1.13-1.24-2.3-2.53-2.84-3.75-.56-1.27-.26-1.57.16-2,.35-.36.78-.8.72-1.8,0-.08-.06-.16-.14-.21-.72-.4-.76-.4-1.89-.4-.12,0-.23.1-.25.22-.07.6.01.92.06,1.13.06.21.07.24-.66.82-.9-.42-.99-.88-1.09-1.36-.16-.8-.42-1.4-2.31-1.62-.08,0-.15.02-.2.08-.06.06-.08.14-.08.21.14,1.06.51,1.78.86,2.49.27.53.52,1.02.68,1.66-.34-.05-.65-.08-.93-.08-1.63,0-2,.9-2.01,1.67,0,.02-.01.04-.01.05,0,.14.12.25.26.25h0s.05,0,.08-.01c.17-.06.35-.09.54-.09,1.19,0,2.72,1.06,3.65,2.52.73,1.13.91,2.27.53,3.15-.03.04-.05.1-.05.15,0,.14.11.25.25.25h0s.05,0,.08,0c.41-.14.73-.21.96-.21.48,0,.54.27.61,1.43,0,.15.01.3.03.46,0,.11.08.19.17.22.1.03.21,0,.27-.07.38-.45.42-.5.88-.5.51.57.57,1.36.16,2.33-.9,2.18-3.89,4.59-5.51,4.88.07-.62-.02-1.06-.27-1.37-.37-.45-1.04-.52-2.03-.22-.09.03-.15.1-.17.18-.02.09.01.18.07.24.48.46.39.69.26,1-.21.53-.28,1,.86,1.66-.06.16-.08.36-.08.5-.17.15-.42.21-.7.28-.71.18-1.59.41-1.44,2.28,0,.1.08.19.17.22.06.01.12.01.18-.01.28-.1,2.93-.88,3.78-1.1.12.97.76,1.33,1.32,1.33s1.11-.34,1.34-.84c.14-.29.27-.88-.26-1.61.4-.23,2.04-.41,3.06-.41.05,0,.09,0,.11,0,.1.03.18,0,.25-.08.06-.07.07-.17.03-.26-.38-.91.42-1.41,1.77-2.12.29-.15.6-.31.88-.48,2.07,2.5,4.03,3.59,6.29,4.84,1.2.67,2.45,1.36,3.88,2.34,2.71,1.87,2.37,5.29,2.03,8.59-.16,1.55-.3,3.01-.16,4.34,0,.1.08.19.19.22.1.02.21-.02.26-.1.74-1.05,1.52-1.6,2.24-1.6.87,0,1.44.76,1.7,1.22.61,1.05.88,2.73.21,3.89-.47.81-1.29,1.18-2.44,1.11-.45-.68-1.13-1.13-1.72-1.13-.41,0-1.12.2-1.39,1.56-.01.03-.02.06-.02.1,0,.14.12.26.26.26h0s.02,0,.03,0c.6-.07.98,0,1.12.23.11.18.19.63-.41,1.79-.03.04-.06.1-.06.16,0,.14.12.26.25.25.03,0,.07,0,.11-.01,1.99-.84,3.3-.42,4.02,1.34.01.01.01.02.02.03-11.65,1.86-22.78,6.26-32.58,12.86v-63.33h-63.81v64.98c-13.54-9.84-29.9-15.31-46.74-15.52l-4.34-.05,7.82,10.54-7.86,9.94,4.35.07c8.39.14,16.48,1.96,24.07,5.4l-2.85,3.09,1.6,1.46c14.99,13.63,34.41,21.14,54.68,21.14s39.7-7.51,54.68-21.14l1.6-1.46-2.85-3.09c7.59-3.44,15.68-5.26,24.07-5.4l4.35-.07-7.86-9.94,7.81-10.54ZM175.93,43.05s-.03-.01-.04-.02c.05-.03.16-.06.27-.07-.05.03-.13.06-.23.09ZM180.97,38.83c-.3,0-.61-.19-.73-.7.23.02.47.04.72.06.18.01.37.03.57.04.05.04.1.06.16.08-.13.34-.43.52-.71.52ZM95.82,38.38h59.25v62.64c-1.83,1.33-3.62,2.73-5.34,4.22l-3.31,2.84,2.91,3.16c-7.82,3.54-16.47,5.41-25.08,5.41s-17.24-1.86-25.07-5.41l2.91-3.16-3.3-2.84c-.97-.84-1.97-1.65-2.98-2.44V38.38ZM164.2,103.19c-3.71,3.14-7.75,5.81-12.02,7.97l-2.47-2.68,14.5-5.28ZM98.82,108.47l-2.48,2.68c-4.28-2.16-8.31-4.83-12.03-7.97l14.5,5.28ZM46.8,103.91l5.94-7.51c.14-.18.15-.43.01-.61l-5.98-8.08c18.67.24,36.52,7.01,50.62,19.16l-15.24-5.55s-.02,0-.03,0c-.04,0-.07-.01-.1-.02-.01,0-.03,0-.04,0h-.03s-.07,0-.09.01t0,0s-.08.02-.11.05c-.01,0-.02,0-.03.01-.04.02-.07.05-.1.08l-7.92,8.6-.24.26c-8.23-4.04-17.31-6.24-26.65-6.4ZM124.26,135c-19.75,0-38.63-7.31-53.23-20.58l2.64-2.87.36-.38.09-.1.27-.29.08-.08,7.54-8.19c4.15,3.77,8.74,6.91,13.63,9.42.15.08.31.16.47.24.16.08.31.16.48.23,8.53,4.19,17.97,6.41,27.68,6.41s19.15-2.22,27.69-6.41c.16-.08.32-.15.47-.23.16-.08.31-.16.46-.24,4.9-2.5,9.48-5.65,13.63-9.42l7.55,8.19.07.08.27.29.09.1.35.38,2.64,2.87c-14.6,13.27-33.48,20.58-53.24,20.58ZM201.73,103.91c-9.34.16-18.41,2.36-26.65,6.4l-.24-.26-7.92-8.6s-.07-.06-.11-.08c-.01,0-.01-.01-.03-.01-.04-.03-.08-.04-.12-.05,0,0,0,0,0,0-.03,0-.06-.01-.1-.01h-.02s-.03,0-.04,0c-.03,0-.06.01-.1.02,0,0-.02,0-.03,0l-15.24,5.55c14.11-12.16,31.95-18.93,50.63-19.16l-5.98,8.08c-.13.19-.13.44.01.61l5.94,7.51Z"/>
    <path class="st3" d="M110.12,105.51h7.76c3.92,0,7.11,3.19,7.11,7.1,0,.56.45,1.01,1.02,1.01s1.01-.45,1.01-1.01c0-3.92,3.19-7.1,7.11-7.1h8.2c4.19,0,7.59-3.41,7.59-7.59v-52.08c0-.56-.45-1.02-1.01-1.02h-45.36c-.56,0-1.02.45-1.02,1.02v52.08c0,4.19,3.41,7.59,7.59,7.59ZM104.55,46.86h43.34v30.77h-4.04c.02-.18-.03-.35-.13-.51l-1.98-2.83c-.04-.06-.09-.12-.15-.16l-2.2-1.77-1.38-2.76c-.05-.09-.12-.18-.2-.24l-2.03-1.7-2.02-2.32-1.94-2.41c-.05-.07-.13-.14-.22-.18l-4.01-2.29c-.1-.06-.22-.1-.34-.1l-3.53-.19c-.12,0-.23.01-.33.06l-4.16,1.74c-.15.06-.27.17-.36.31l-4,6.64-4.14,3.97s-.08.09-.11.13l-2.69,4.19c-.08.13-.12.27-.12.41h-3.28v-30.77ZM118.43,66.93c-.14-.14-.37-.14-.51,0l-.14.14,2.29-3.8,3.77-1.58,3.18.17,3.73,2.13,1.86,2.31s.01.02.02.02l2.07,2.38s.06.06.09.08l1.95,1.63,1.38,2.76c.05.1.12.19.2.25l2.25,1.8,1.67,2.39h-32.74l2.38-3.7,4.15-3.98c.05-.04.09-.1.12-.16l.29-.47c.08,0,.17-.04.23-.1l1.77-1.77c.14-.14.14-.37,0-.51ZM104.55,85.75c1.55-.12,2.41-.55,3.53-1.1,1.55-.77,3.47-1.73,7.02-1.73s5.47.96,7.01,1.73c1.34.67,2.3,1.15,4.53,1.15s3.2-.48,4.54-1.15c1.55-.77,3.47-1.73,7.01-1.73s5.47.96,7.01,1.73c.9.45,1.63.81,2.69,1v5.62c-2.41-.26-3.91-1-5.17-1.63-1.33-.67-2.3-1.14-4.53-1.14s-3.2.48-4.54,1.14c-1.55.77-3.47,1.73-7.01,1.73s-5.46-.95-7.01-1.73c-1.34-.67-2.3-1.14-4.53-1.14s-3.2.48-4.54,1.14c-1.39.69-3.09,1.54-6,1.7v-5.58ZM104.55,96.12c1.55-.13,2.41-.55,3.53-1.1,1.55-.77,3.47-1.72,7.02-1.72s5.47.95,7.01,1.72c1.34.67,2.3,1.14,4.53,1.14s3.2-.48,4.54-1.14c1.55-.77,3.47-1.72,7.01-1.72s5.47.95,7.01,1.72c.9.45,1.63.81,2.69,1v1.91c0,1.33-.48,2.56-1.25,3.51-1.7-.34-2.89-.93-3.91-1.43-1.33-.67-2.3-1.14-4.53-1.14s-3.2.48-4.54,1.14c-1.55.77-3.47,1.73-7.01,1.73s-5.46-.96-7.01-1.73c-1.34-.67-2.3-1.14-4.53-1.14s-3.2.48-4.54,1.14c-1.15.58-2.54,1.25-4.64,1.56-.84-.98-1.36-2.25-1.36-3.64v-1.8Z"/>
    <path class="st3" d="M118.13,68.12l-1.47,1.47c-.14.14-.14.37,0,.51.07.07.17.11.26.11.09,0,.18-.04.25-.11l1.47-1.47c.14-.14.14-.37,0-.51-.14-.14-.37-.14-.51,0Z"/>
    <path class="st3" d="M118.13,69.37l-.84.84c-.14.14-.14.37,0,.51.07.07.16.11.26.11s.18-.04.26-.11l.84-.84c.14-.14.14-.37,0-.51-.14-.14-.37-.14-.51,0Z"/>
    <path class="st3" d="M123.69,74.37c.09,0,.18-.04.25-.11l1.77-1.77c.14-.14.14-.37,0-.51-.14-.14-.37-.14-.51,0l-1.77,1.77c-.14.14-.14.37,0,.51.07.07.17.11.26.11Z"/>
    <path class="st3" d="M125.43,73.18l-1.47,1.47c-.14.14-.14.37,0,.51.07.07.16.11.26.11s.18-.03.26-.11l1.47-1.46c.14-.14.14-.37,0-.51-.14-.14-.37-.14-.51,0Z"/>
    <path class="st3" d="M125.43,74.43l-.85.84c-.13.14-.13.37,0,.51.07.07.17.1.26.1.09,0,.18-.03.25-.1l.85-.84c.14-.14.14-.37,0-.51-.14-.14-.37-.14-.51,0Z"/>
    <path class="st3" d="M129.54,69.77c.09,0,.19-.04.26-.11l1.77-1.77c.14-.14.14-.37,0-.51-.14-.14-.37-.14-.51,0l-1.77,1.77c-.14.14-.14.37,0,.5.07.07.16.11.26.11Z"/>
    <path class="st3" d="M131.28,68.57l-1.46,1.47c-.15.14-.15.37,0,.51.07.07.16.1.25.1.09,0,.18-.03.26-.1l1.47-1.47c.14-.14.14-.37,0-.51-.14-.14-.37-.14-.51,0Z"/>
    <path class="st3" d="M131.28,69.82l-.84.84c-.14.14-.14.37,0,.51.07.07.16.11.26.11s.19-.03.26-.11l.84-.84c.14-.14.14-.37,0-.51-.14-.14-.37-.14-.51,0Z"/>
    <path class="st3" d="M135.23,75.62c.1,0,.18-.03.26-.1l1.77-1.78c.14-.14.14-.37,0-.5-.14-.14-.37-.14-.51,0l-1.77,1.77c-.14.14-.14.37,0,.51.07.07.16.1.25.1Z"/>
    <path class="st3" d="M136.97,74.42l-1.47,1.47c-.14.14-.14.37,0,.51.07.07.16.1.26.1s.18-.04.25-.1l1.47-1.47c.14-.14.14-.37,0-.51-.15-.14-.37-.14-.52,0Z"/>
    <path class="st3" d="M136.97,75.68l-.84.84c-.14.14-.14.37,0,.51.08.07.17.11.26.11.09,0,.19-.04.26-.11l.85-.84c.14-.14.14-.37,0-.51-.15-.14-.37-.14-.52,0Z"/>
    <path class="st3" d="M84.44,74.24c.09,0,.18-.06.22-.15.04-.08.03-.18-.03-.26-.46-.59-.96-.88-1.47-.88-1.09,0-1.88,1.39-2.21,2.29-.52-.2-1.85-1-2.7-1.49-.4-.23-.78-.46-1.08-.63.54-.29.88-.95.92-1.89.11-2.31-1.58-5.71-4.58-5.99-.5-.04-1.03-.12-1.54-.19-.89-.12-1.81-.25-2.64-.25-1.57,0-3.66.41-3.66,3.96,0,.13.09.23.21.25,1.97.3,3.96.34,5.94.11.18,1.94.02,3.88-.46,5.77-.02.08,0,.16.05.22.06.06.14.09.22.09,1.05-.09,1.89.5,2.79,1.12.9.63,1.92,1.35,3.32,1.45-.18.56-.21,1.13-.11,1.72.01.07.06.14.12.17.07.04.14.05.22.02.8-.3,1.3-.15,1.57.5,0,.1.04.22.12.35,0,0,0,0,0,0,.02.02.03.04.05.05.03.03.07.05.11.06,0,0,.02,0,.04,0,0,0,.02,0,.02,0,.15,0,.26-.11.26-.25.31-1.4,1.66-1.52,3.15-1.52h.57s0,0,0,0c.13,0,.26-.11.26-.25,0-.07-.03-.13-.08-.18-.23-.38-.31-2.83.15-3.87.09-.21.19-.33.28-.34Z"/>
    <path class="st3" d="M50.81,44.98c.15,0,.52.09.91.18.64.15,1.45.34,2.08.34.68,0,.97-.23,1.09-.48.49.27.45.7.36,1.33-.07.44-.13.9.17,1.22.05.05.13.08.21.07.07,0,.14-.05.19-.11.5-.77.57-1.53.63-2.26.06-.69.12-1.34.54-1.97,1.23.02,2.01.34,2.34.95.95,1.77-1.75,5.77-3.72,8.7-1,1.49-1.79,2.66-2.01,3.36,0,.01,0,.03-.01.04-.39,2.66.24,5.17,1.73,6.88,1.48,1.71,3.65,2.46,6.15,2.11-1.02,1.14-1.43,2.55-1.8,3.82-.52,1.77-.92,3.17-2.78,3.17-.54,0-1.17-.11-1.94-.34-.07-.03-.16,0-.22.04-.07.05-.1.12-.1.2,0,.84.07,1.54.13,2.16.1,1.07.19,1.92-.12,3.01-.02.08,0,.17.06.24.06.06.15.09.23.07.22-.04.41-.06.57-.06.18,0,.4.02.46.15.06.1.12.46-.56,1.52-.05.08-.05.2,0,.28.06.08.16.12.27.1.12-.03.27-.04.41-.06.02,0,.04,0,.06,0-.03.15-.06.31-.09.48-.05.26-.11.53-.17.76-.03.07,0,.15.04.22.03.04.07.07.12.09.44.31,4.18,4.52,4.73,5.42.04.07.12.12.22.12h.02c.09-.01.18-.07.21-.16.71-1.76,2.03-2.18,4.02-1.34.03.01.07.01.1.01.14.02.25-.11.25-.25,0-.06-.02-.11-.05-.16-.59-1.16-.51-1.62-.41-1.79.14-.23.53-.3,1.13-.23,0,0,.02,0,.03,0h0c.14,0,.26-.12.26-.26,0-.03,0-.07-.02-.1-.27-1.36-.98-1.56-1.39-1.56-.59,0-1.27.45-1.72,1.13-1.15.07-1.97-.31-2.44-1.11-.67-1.16-.4-2.84.21-3.89.26-.46.83-1.22,1.7-1.22.72,0,1.5.55,2.24,1.6.06.08.17.12.27.1.1-.03.17-.12.19-.22.14-1.32-.01-2.79-.17-4.34-.33-3.3-.68-6.72,2.04-8.59,1.43-.98,2.67-1.67,3.88-2.34,2.26-1.25,4.22-2.34,6.29-4.84.28.17.58.32.87.48,1.36.71,2.15,1.21,1.78,2.12-.04.09-.03.19.04.26.06.07.15.11.24.08.02,0,.06,0,.12,0,1.02,0,2.66.19,3.06.41-.54.73-.4,1.31-.27,1.61.23.51.77.84,1.35.84s1.21-.36,1.32-1.33c.86.21,3.51.99,3.78,1.1.06.02.12.03.18.01.1-.03.17-.12.18-.22.14-1.88-.73-2.1-1.44-2.28-.28-.07-.53-.13-.7-.28,0-.14-.01-.34-.08-.5,1.15-.66,1.08-1.13.86-1.66-.12-.31-.21-.54.27-1,.07-.06.09-.15.07-.24-.02-.08-.08-.15-.17-.18-.99-.31-1.66-.23-2.03.22-.25.3-.34.75-.26,1.37-1.63-.29-4.61-2.69-5.52-4.88-.4-.97-.34-1.76.16-2.33.46,0,.5.05.88.5.07.08.17.11.27.07.1-.03.17-.12.18-.22.01-.16.02-.31.03-.46.06-1.16.12-1.43.6-1.43.23,0,.54.06.96.21.03,0,.05,0,.08,0h0c.13,0,.25-.11.25-.25,0-.05-.02-.11-.04-.15-.39-.88-.2-2.02.52-3.15.93-1.46,2.47-2.52,3.65-2.52.19,0,.38.03.54.09.03,0,.05.01.08.01h0c.14,0,.26-.11.26-.25,0-.01,0-.04,0-.05-.02-.77-.39-1.67-2.02-1.67-.28,0-.59.03-.93.08.16-.64.42-1.13.68-1.66.35-.7.73-1.42.86-2.49.01-.08-.02-.16-.07-.21-.05-.06-.14-.08-.21-.08-1.88.22-2.15.81-2.31,1.62-.1.49-.19.95-1.09,1.36-.72-.57-.72-.61-.66-.82.05-.21.13-.53.07-1.13-.02-.12-.12-.22-.26-.22-1.12,0-1.16,0-1.88.4-.08.04-.12.12-.13.21-.07,1,.37,1.44.71,1.8.41.43.72.73.16,2-.53,1.22-1.71,2.5-2.84,3.75-.74.82-1.45,1.6-1.99,2.35-1.28-1.72-2.48-1.86-3.78-1.86h-.6c-.86,0-1.8-.05-2.87-.64.09-.72.41-.72.59-.72.25,0,.56.09.89.19.37.11.75.22,1.11.22.14,0,.27-.02.4-.06.1-.03.16-.11.18-.2.26-1.5-.77-1.76-1.59-1.96-.74-.19-1.46-.38-1.67-1.27,1.65.21,3.12.58,4.74,1.17,0,0,0,0,0,0h0s.02,0,.03,0h0s.03,0,.04-.01c.86-.35,1.42-.6,1.97-1.37.03-.04.03-.09,0-.14-.03-.04-.07-.07-.12-.07-.22.02-.45.02-.7.02-.61,0-1.25-.04-1.86-.08-.62-.04-1.26-.09-1.88-.09-.92,0-1.64.1-2.3.31-.03-.28-.03-.61.04-1.02.33,0,.64.01.94.03.32.01.63.02.91.02.73,0,1.47-.07,1.92-.59.44-.5.57-1.3.4-2.63-.01-.12-.11-.21-.22-.22-.65-.06-1.31-.09-1.97-.09-3.13,0-6.12.73-8.37,1.37-.06.02-.1.05-.14.1-1.71,2.35-.83,7.78.15,10.16.12.3,1.37,2.14,1.9,2.91,1,1.47,1.46,2.12,1.69,2.41-1.01,1.63-1.93,3.33-2.72,5.06-1,2.18-2.52,3.37-4.29,3.37-1.47,0-2.96-.88-3.89-2.29-1.13-1.72-1.28-3.87-.39-5.93.39-.91,1.12-2.06,1.89-3.28,1.9-3.01,4.27-6.76,3.16-9.39-.59-1.38-2.02-2.29-4.38-2.77-.04,0-.08,0-.12,0-.84.23-1.43.42-1.9.57-1.17.38-1.61.52-3.42.52-.08,0-.16.04-.2.11-.04.06-.06.15-.03.23.15.44.62.87,1.11,1.33.48.44,1.02.94,1.01,1.27,0,.04,0,.09-.05.15h-.06c-.38-.09-.87-.18-1.32-.18-.56,0-.95.14-1.2.44-.24.28-.32.7-.24,1.24.02.12.13.21.25.21ZM75.24,43.03s-.02.01-.04.02c-.1-.04-.17-.07-.23-.09.11.01.22.04.27.07ZM69.6,38.23c.2-.02.39-.03.57-.04.25-.02.48-.04.71-.06-.11.51-.42.7-.72.7s-.58-.18-.72-.52c.06-.02.11-.05.16-.08Z"/>
    <path class="st3" d="M170.17,75.24c-.33-.9-1.12-2.29-2.21-2.29-.51,0-1,.3-1.47.88-.05.07-.07.18-.03.26.04.09.12.15.22.15.08,0,.19.13.28.34.46,1.04.38,3.49.15,3.87-.05.04-.08.11-.08.18,0,.14.12.26.25.25h.58c1.48,0,2.83.12,3.14,1.52,0,.14.12.25.26.25,0,0,.02,0,.03,0,0,0,.02,0,.03,0,.04-.01.08-.03.11-.06.01-.02.03-.03.04-.05h0c.08-.13.12-.26.12-.36.27-.65.77-.8,1.57-.5.07.03.15.02.21-.02.07-.03.11-.1.13-.17.1-.59.07-1.17-.11-1.72,1.4-.11,2.41-.82,3.32-1.45.89-.62,1.73-1.21,2.79-1.12.08,0,.16-.03.21-.09.06-.06.07-.15.05-.22-.48-1.89-.64-3.83-.46-5.77,1.98.23,3.97.2,5.93-.11.13-.02.22-.12.22-.25,0-3.55-2.09-3.96-3.66-3.96-.83,0-1.75.13-2.64.25-.51.07-1.03.14-1.53.19-3,.29-4.69,3.68-4.58,5.99.04.93.38,1.59.92,1.89-.3.17-.68.39-1.08.63-.84.5-2.18,1.29-2.7,1.49Z"/>
    <path class="st3" d="M89.46,123.71l1.76.78,1.18-1.61,2.24.99-.4,1.95,1.77.78,1.51-9.4-2.1-.93-5.96,7.43ZM95.83,118.21l-.87,4.15-1.65-.73,2.49-3.42h.03Z"/>
    <path class="st3" d="M112.29,121.61l-3.37-.64-1.72,9.05,1.82.34.73-3.82.98.18c.73.14.97.63.86,1.34l-.28,1.74c-.05.35-.08.71.05,1l1.98.37v-.08c-.3-.24-.25-.75-.09-1.7.34-1.92.28-2.64-.93-3.04v-.02c1.07-.03,1.71-.74,1.94-1.95.29-1.54-.47-2.5-1.97-2.79ZM112.38,124.32c-.19.97-.75,1.26-1.62,1.1l-.76-.15.49-2.61.86.16c.82.16,1.19.66,1.03,1.5Z"/>
    <rect class="st3" x="125.18" y="122.75" width="1.85" height="9.2" transform="translate(-1.91 1.92) rotate(-.87)"/>
    <path class="st3" d="M142.53,126.4c.42,1.93.02,2.38-.63,2.53-.78.17-1.26-.24-1.86-2.95-.56-2.54-.55-3.51.37-3.71.82-.18,1.21.33,1.49,1.63l1.81-.39c-.29-1.31-.89-3.17-3.49-2.6-2.72.6-2.63,2.61-2.03,5.34.6,2.73,1.37,4.6,4.09,4,2.38-.52,2.49-2.3,2.06-4.24l-1.81.4Z"/>
    <path class="st3" d="M154.01,116.48l1.75,9.37,1.75-.83-.45-1.95,2.21-1.05,1.22,1.58,1.75-.83-6.15-7.28-2.08.98ZM156.69,121.57l-.97-4.12h.03s2.58,3.35,2.58,3.35l-1.63.77Z"/>
  </g>
  <g>
    <rect class="st4" x="42.41" y="173.22" width="179" height="13.71"/>
    <rect class="st2" x="220.6" y="173.22" width="179" height="13.71"/>
    <rect class="st0" x="399.58" y="173.22" width="179" height="13.71"/>
    <rect class="st1" x="578.58" y="173.22" width="179" height="13.71"/>
  </g>
</svg>